<svg width="724" height="222" viewBox="0 0 724 222" fill="none" xmlns="http://www.w3.org/2000/svg">
<g filter="url(#filter0_d_420_931)">
<rect x="4" width="716" height="214" rx="20" fill="#687CBB"/>
</g>
<path d="M166.266 54.192L164.874 59.52L164.49 57.72C165.05 57.72 165.514 57.896 165.882 58.248C166.25 58.6 166.434 59.072 166.434 59.664C166.434 60.256 166.25 60.736 165.882 61.104C165.514 61.456 165.058 61.632 164.514 61.632C163.938 61.632 163.466 61.448 163.098 61.08C162.73 60.712 162.546 60.24 162.546 59.664C162.546 59.472 162.554 59.296 162.57 59.136C162.602 58.96 162.658 58.752 162.738 58.512C162.818 58.272 162.93 57.968 163.074 57.6L164.346 54.192H166.266ZM176.925 72.24C174.621 72.24 172.813 71.592 171.501 70.296C170.205 69 169.557 67.128 169.557 64.68V55.2H172.677V64.56C172.677 66.288 173.045 67.544 173.781 68.328C174.533 69.112 175.589 69.504 176.949 69.504C178.309 69.504 179.357 69.112 180.093 68.328C180.829 67.544 181.197 66.288 181.197 64.56V55.2H184.269V64.68C184.269 67.128 183.613 69 182.301 70.296C181.005 71.592 179.213 72.24 176.925 72.24ZM195.623 59.04C196.647 59.04 197.559 59.24 198.359 59.64C199.175 60.04 199.815 60.656 200.279 61.488C200.743 62.304 200.975 63.36 200.975 64.656V72H197.975V65.04C197.975 63.904 197.703 63.056 197.159 62.496C196.631 61.936 195.887 61.656 194.927 61.656C194.223 61.656 193.599 61.8 193.055 62.088C192.511 62.376 192.087 62.808 191.783 63.384C191.495 63.944 191.351 64.656 191.351 65.52V72H188.351V59.184H191.207V62.64L190.703 61.584C191.151 60.768 191.799 60.144 192.647 59.712C193.511 59.264 194.503 59.04 195.623 59.04ZM204.781 72V59.184H207.781V72H204.781ZM206.293 57.072C205.733 57.072 205.269 56.896 204.901 56.544C204.549 56.192 204.373 55.768 204.373 55.272C204.373 54.76 204.549 54.336 204.901 54C205.269 53.648 205.733 53.472 206.293 53.472C206.853 53.472 207.309 53.64 207.661 53.976C208.029 54.296 208.213 54.704 208.213 55.2C208.213 55.728 208.037 56.176 207.685 56.544C207.333 56.896 206.869 57.072 206.293 57.072ZM216.542 72.168C215.134 72.168 214.046 71.808 213.278 71.088C212.51 70.352 212.126 69.272 212.126 67.848V56.352H215.126V67.776C215.126 68.384 215.278 68.856 215.582 69.192C215.902 69.528 216.342 69.696 216.902 69.696C217.574 69.696 218.134 69.52 218.582 69.168L219.422 71.304C219.07 71.592 218.638 71.808 218.126 71.952C217.614 72.096 217.086 72.168 216.542 72.168ZM210.014 61.68V59.28H218.558V61.68H210.014ZM227.492 72.168C226.068 72.168 224.82 71.888 223.748 71.328C222.692 70.752 221.868 69.968 221.276 68.976C220.7 67.984 220.412 66.856 220.412 65.592C220.412 64.312 220.692 63.184 221.252 62.208C221.828 61.216 222.612 60.44 223.604 59.88C224.612 59.32 225.756 59.04 227.036 59.04C228.284 59.04 229.396 59.312 230.372 59.856C231.348 60.4 232.116 61.168 232.676 62.16C233.236 63.152 233.516 64.32 233.516 65.664C233.516 65.792 233.508 65.936 233.492 66.096C233.492 66.256 233.484 66.408 233.468 66.552H222.788V64.56H231.884L230.708 65.184C230.724 64.448 230.572 63.8 230.252 63.24C229.932 62.68 229.492 62.24 228.932 61.92C228.388 61.6 227.756 61.44 227.036 61.44C226.3 61.44 225.652 61.6 225.092 61.92C224.548 62.24 224.116 62.688 223.796 63.264C223.492 63.824 223.34 64.488 223.34 65.256V65.736C223.34 66.504 223.516 67.184 223.868 67.776C224.22 68.368 224.716 68.824 225.356 69.144C225.996 69.464 226.732 69.624 227.564 69.624C228.284 69.624 228.932 69.512 229.508 69.288C230.084 69.064 230.596 68.712 231.044 68.232L232.652 70.08C232.076 70.752 231.348 71.272 230.468 71.64C229.604 71.992 228.612 72.168 227.492 72.168ZM241.822 72.168C240.59 72.168 239.478 71.896 238.486 71.352C237.51 70.792 236.742 70.024 236.182 69.048C235.622 68.072 235.342 66.92 235.342 65.592C235.342 64.264 235.622 63.112 236.182 62.136C236.742 61.16 237.51 60.4 238.486 59.856C239.478 59.312 240.59 59.04 241.822 59.04C242.894 59.04 243.854 59.28 244.702 59.76C245.55 60.224 246.222 60.936 246.718 61.896C247.214 62.856 247.462 64.088 247.462 65.592C247.462 67.08 247.222 68.312 246.742 69.288C246.262 70.248 245.598 70.968 244.75 71.448C243.902 71.928 242.926 72.168 241.822 72.168ZM242.182 69.6C242.902 69.6 243.542 69.44 244.102 69.12C244.678 68.8 245.134 68.336 245.47 67.728C245.822 67.12 245.998 66.408 245.998 65.592C245.998 64.76 245.822 64.048 245.47 63.456C245.134 62.848 244.678 62.384 244.102 62.064C243.542 61.744 242.902 61.584 242.182 61.584C241.462 61.584 240.814 61.744 240.238 62.064C239.678 62.384 239.222 62.848 238.87 63.456C238.534 64.048 238.366 64.76 238.366 65.592C238.366 66.408 238.534 67.12 238.87 67.728C239.222 68.336 239.678 68.8 240.238 69.12C240.814 69.44 241.462 69.6 242.182 69.6ZM246.07 72V68.976L246.19 65.568L245.95 62.16V54.192H248.926V72H246.07ZM262.339 72L257.635 59.184H260.467L264.499 70.488H263.155L267.379 59.184H269.899L274.003 70.488H272.683L276.835 59.184H279.499L274.771 72H271.891L268.147 61.992H269.035L265.219 72H262.339ZM287.234 72.168C285.81 72.168 284.562 71.888 283.49 71.328C282.434 70.752 281.61 69.968 281.018 68.976C280.442 67.984 280.154 66.856 280.154 65.592C280.154 64.312 280.434 63.184 280.994 62.208C281.57 61.216 282.354 60.44 283.346 59.88C284.354 59.32 285.498 59.04 286.778 59.04C288.026 59.04 289.138 59.312 290.114 59.856C291.09 60.4 291.858 61.168 292.418 62.16C292.978 63.152 293.258 64.32 293.258 65.664C293.258 65.792 293.25 65.936 293.234 66.096C293.234 66.256 293.226 66.408 293.21 66.552H282.53V64.56H291.626L290.45 65.184C290.466 64.448 290.314 63.8 289.994 63.24C289.674 62.68 289.234 62.24 288.674 61.92C288.13 61.6 287.498 61.44 286.778 61.44C286.042 61.44 285.394 61.6 284.834 61.92C284.29 62.24 283.858 62.688 283.538 63.264C283.234 63.824 283.082 64.488 283.082 65.256V65.736C283.082 66.504 283.258 67.184 283.61 67.776C283.962 68.368 284.458 68.824 285.098 69.144C285.738 69.464 286.474 69.624 287.306 69.624C288.026 69.624 288.674 69.512 289.25 69.288C289.826 69.064 290.338 68.712 290.786 68.232L292.394 70.08C291.818 70.752 291.09 71.272 290.21 71.64C289.346 71.992 288.354 72.168 287.234 72.168ZM306.733 72.168C305.661 72.168 304.629 72.032 303.637 71.76C302.661 71.472 301.885 71.128 301.309 70.728L302.461 68.448C303.037 68.816 303.725 69.12 304.525 69.36C305.325 69.6 306.125 69.72 306.925 69.72C307.869 69.72 308.549 69.592 308.965 69.336C309.397 69.08 309.613 68.736 309.613 68.304C309.613 67.952 309.469 67.688 309.181 67.512C308.893 67.32 308.517 67.176 308.053 67.08C307.589 66.984 307.069 66.896 306.493 66.816C305.933 66.736 305.365 66.632 304.789 66.504C304.229 66.36 303.717 66.16 303.253 65.904C302.789 65.632 302.413 65.272 302.125 64.824C301.837 64.376 301.693 63.784 301.693 63.048C301.693 62.232 301.925 61.528 302.389 60.936C302.853 60.328 303.501 59.864 304.333 59.544C305.181 59.208 306.181 59.04 307.333 59.04C308.197 59.04 309.069 59.136 309.949 59.328C310.829 59.52 311.557 59.792 312.133 60.144L310.981 62.424C310.373 62.056 309.757 61.808 309.133 61.68C308.525 61.536 307.917 61.464 307.309 61.464C306.397 61.464 305.717 61.6 305.269 61.872C304.837 62.144 304.621 62.488 304.621 62.904C304.621 63.288 304.765 63.576 305.053 63.768C305.341 63.96 305.717 64.112 306.181 64.224C306.645 64.336 307.157 64.432 307.717 64.512C308.293 64.576 308.861 64.68 309.421 64.824C309.981 64.968 310.493 65.168 310.957 65.424C311.437 65.664 311.821 66.008 312.109 66.456C312.397 66.904 312.541 67.488 312.541 68.208C312.541 69.008 312.301 69.704 311.821 70.296C311.357 70.888 310.693 71.352 309.829 71.688C308.965 72.008 307.933 72.168 306.733 72.168ZM319.948 72.168C318.54 72.168 317.452 71.808 316.684 71.088C315.916 70.352 315.532 69.272 315.532 67.848V56.352H318.532V67.776C318.532 68.384 318.684 68.856 318.988 69.192C319.308 69.528 319.748 69.696 320.308 69.696C320.98 69.696 321.54 69.52 321.988 69.168L322.828 71.304C322.476 71.592 322.044 71.808 321.532 71.952C321.02 72.096 320.492 72.168 319.948 72.168ZM313.42 61.68V59.28H321.964V61.68H313.42ZM333.192 72V69.408L333.024 68.856V64.32C333.024 63.44 332.76 62.76 332.232 62.28C331.704 61.784 330.904 61.536 329.832 61.536C329.112 61.536 328.4 61.648 327.696 61.872C327.008 62.096 326.424 62.408 325.944 62.808L324.768 60.624C325.456 60.096 326.272 59.704 327.216 59.448C328.176 59.176 329.168 59.04 330.192 59.04C332.048 59.04 333.48 59.488 334.488 60.384C335.512 61.264 336.024 62.632 336.024 64.488V72H333.192ZM329.16 72.168C328.2 72.168 327.36 72.008 326.64 71.688C325.92 71.352 325.36 70.896 324.96 70.32C324.576 69.728 324.384 69.064 324.384 68.328C324.384 67.608 324.552 66.96 324.888 66.384C325.24 65.808 325.808 65.352 326.592 65.016C327.376 64.68 328.416 64.512 329.712 64.512H333.432V66.504H329.928C328.904 66.504 328.216 66.672 327.864 67.008C327.512 67.328 327.336 67.728 327.336 68.208C327.336 68.752 327.552 69.184 327.984 69.504C328.416 69.824 329.016 69.984 329.784 69.984C330.52 69.984 331.176 69.816 331.752 69.48C332.344 69.144 332.768 68.648 333.024 67.992L333.528 69.792C333.24 70.544 332.72 71.128 331.968 71.544C331.232 71.96 330.296 72.168 329.16 72.168ZM347.146 59.04C348.17 59.04 349.082 59.24 349.882 59.64C350.698 60.04 351.338 60.656 351.802 61.488C352.266 62.304 352.498 63.36 352.498 64.656V72H349.498V65.04C349.498 63.904 349.226 63.056 348.682 62.496C348.154 61.936 347.41 61.656 346.45 61.656C345.746 61.656 345.122 61.8 344.578 62.088C344.034 62.376 343.61 62.808 343.306 63.384C343.018 63.944 342.874 64.656 342.874 65.52V72H339.874V59.184H342.73V62.64L342.226 61.584C342.674 60.768 343.322 60.144 344.17 59.712C345.034 59.264 346.026 59.04 347.146 59.04ZM361.751 72.168C360.519 72.168 359.407 71.896 358.415 71.352C357.439 70.792 356.671 70.024 356.111 69.048C355.551 68.072 355.271 66.92 355.271 65.592C355.271 64.264 355.551 63.112 356.111 62.136C356.671 61.16 357.439 60.4 358.415 59.856C359.407 59.312 360.519 59.04 361.751 59.04C362.823 59.04 363.783 59.28 364.631 59.76C365.479 60.224 366.151 60.936 366.647 61.896C367.143 62.856 367.391 64.088 367.391 65.592C367.391 67.08 367.151 68.312 366.671 69.288C366.191 70.248 365.527 70.968 364.679 71.448C363.831 71.928 362.855 72.168 361.751 72.168ZM362.111 69.6C362.831 69.6 363.471 69.44 364.031 69.12C364.607 68.8 365.063 68.336 365.399 67.728C365.751 67.12 365.927 66.408 365.927 65.592C365.927 64.76 365.751 64.048 365.399 63.456C365.063 62.848 364.607 62.384 364.031 62.064C363.471 61.744 362.831 61.584 362.111 61.584C361.391 61.584 360.743 61.744 360.167 62.064C359.607 62.384 359.151 62.848 358.799 63.456C358.463 64.048 358.295 64.76 358.295 65.592C358.295 66.408 358.463 67.12 358.799 67.728C359.151 68.336 359.607 68.8 360.167 69.12C360.743 69.44 361.391 69.6 362.111 69.6ZM365.999 72V68.976L366.119 65.568L365.879 62.16V54.192H368.855V72H365.999ZM384.861 72.168C383.629 72.168 382.517 71.896 381.525 71.352C380.549 70.792 379.781 70.024 379.221 69.048C378.661 68.072 378.381 66.92 378.381 65.592C378.381 64.264 378.661 63.112 379.221 62.136C379.781 61.16 380.549 60.4 381.525 59.856C382.517 59.312 383.629 59.04 384.861 59.04C385.933 59.04 386.893 59.28 387.741 59.76C388.589 60.224 389.261 60.936 389.757 61.896C390.253 62.856 390.501 64.088 390.501 65.592C390.501 67.08 390.261 68.312 389.781 69.288C389.301 70.248 388.637 70.968 387.789 71.448C386.941 71.928 385.965 72.168 384.861 72.168ZM385.221 69.6C385.941 69.6 386.581 69.44 387.141 69.12C387.717 68.8 388.173 68.336 388.509 67.728C388.861 67.12 389.037 66.408 389.037 65.592C389.037 64.76 388.861 64.048 388.509 63.456C388.173 62.848 387.717 62.384 387.141 62.064C386.581 61.744 385.941 61.584 385.221 61.584C384.501 61.584 383.853 61.744 383.277 62.064C382.717 62.384 382.261 62.848 381.909 63.456C381.573 64.048 381.405 64.76 381.405 65.592C381.405 66.408 381.573 67.12 381.909 67.728C382.261 68.336 382.717 68.8 383.277 69.12C383.853 69.44 384.501 69.6 385.221 69.6ZM389.109 72V68.976L389.229 65.568L388.989 62.16V54.192H391.965V72H389.109ZM395.913 72V59.184H398.913V72H395.913ZM397.425 57.072C396.865 57.072 396.401 56.896 396.033 56.544C395.681 56.192 395.505 55.768 395.505 55.272C395.505 54.76 395.681 54.336 396.033 54C396.401 53.648 396.865 53.472 397.425 53.472C397.985 53.472 398.441 53.64 398.793 53.976C399.161 54.296 399.345 54.704 399.345 55.2C399.345 55.728 399.169 56.176 398.817 56.544C398.465 56.896 398.001 57.072 397.425 57.072ZM406.259 72L400.763 59.184H403.883L408.611 70.488H407.075L411.971 59.184H414.851L409.355 72H406.259ZM416.726 72V59.184H419.726V72H416.726ZM418.238 57.072C417.678 57.072 417.214 56.896 416.846 56.544C416.494 56.192 416.318 55.768 416.318 55.272C416.318 54.76 416.494 54.336 416.846 54C417.214 53.648 417.678 53.472 418.238 53.472C418.798 53.472 419.254 53.64 419.606 53.976C419.974 54.296 420.158 54.704 420.158 55.2C420.158 55.728 419.982 56.176 419.63 56.544C419.278 56.896 418.814 57.072 418.238 57.072ZM429.087 72.168C427.855 72.168 426.743 71.896 425.751 71.352C424.775 70.792 424.007 70.024 423.447 69.048C422.887 68.072 422.607 66.92 422.607 65.592C422.607 64.264 422.887 63.112 423.447 62.136C424.007 61.16 424.775 60.4 425.751 59.856C426.743 59.312 427.855 59.04 429.087 59.04C430.159 59.04 431.119 59.28 431.967 59.76C432.815 60.224 433.487 60.936 433.983 61.896C434.479 62.856 434.727 64.088 434.727 65.592C434.727 67.08 434.487 68.312 434.007 69.288C433.527 70.248 432.863 70.968 432.015 71.448C431.167 71.928 430.191 72.168 429.087 72.168ZM429.447 69.6C430.167 69.6 430.807 69.44 431.367 69.12C431.943 68.8 432.399 68.336 432.735 67.728C433.087 67.12 433.263 66.408 433.263 65.592C433.263 64.76 433.087 64.048 432.735 63.456C432.399 62.848 431.943 62.384 431.367 62.064C430.807 61.744 430.167 61.584 429.447 61.584C428.727 61.584 428.079 61.744 427.503 62.064C426.943 62.384 426.487 62.848 426.135 63.456C425.799 64.048 425.631 64.76 425.631 65.592C425.631 66.408 425.799 67.12 426.135 67.728C426.487 68.336 426.943 68.8 427.503 69.12C428.079 69.44 428.727 69.6 429.447 69.6ZM433.335 72V68.976L433.455 65.568L433.215 62.16V54.192H436.191V72H433.335ZM446.164 72.168C444.74 72.168 443.492 71.888 442.42 71.328C441.364 70.752 440.54 69.968 439.948 68.976C439.372 67.984 439.084 66.856 439.084 65.592C439.084 64.312 439.364 63.184 439.924 62.208C440.5 61.216 441.284 60.44 442.276 59.88C443.284 59.32 444.428 59.04 445.708 59.04C446.956 59.04 448.068 59.312 449.044 59.856C450.02 60.4 450.788 61.168 451.348 62.16C451.908 63.152 452.188 64.32 452.188 65.664C452.188 65.792 452.18 65.936 452.164 66.096C452.164 66.256 452.156 66.408 452.14 66.552H441.46V64.56H450.556L449.38 65.184C449.396 64.448 449.244 63.8 448.924 63.24C448.604 62.68 448.164 62.24 447.604 61.92C447.06 61.6 446.428 61.44 445.708 61.44C444.972 61.44 444.324 61.6 443.764 61.92C443.22 62.24 442.788 62.688 442.468 63.264C442.164 63.824 442.012 64.488 442.012 65.256V65.736C442.012 66.504 442.188 67.184 442.54 67.776C442.892 68.368 443.388 68.824 444.028 69.144C444.668 69.464 445.404 69.624 446.236 69.624C446.956 69.624 447.604 69.512 448.18 69.288C448.756 69.064 449.268 68.712 449.716 68.232L451.324 70.08C450.748 70.752 450.02 71.272 449.14 71.64C448.276 71.992 447.284 72.168 446.164 72.168ZM460.494 72.168C459.262 72.168 458.15 71.896 457.158 71.352C456.182 70.792 455.414 70.024 454.854 69.048C454.294 68.072 454.014 66.92 454.014 65.592C454.014 64.264 454.294 63.112 454.854 62.136C455.414 61.16 456.182 60.4 457.158 59.856C458.15 59.312 459.262 59.04 460.494 59.04C461.566 59.04 462.526 59.28 463.374 59.76C464.222 60.224 464.894 60.936 465.39 61.896C465.886 62.856 466.134 64.088 466.134 65.592C466.134 67.08 465.894 68.312 465.414 69.288C464.934 70.248 464.27 70.968 463.422 71.448C462.574 71.928 461.598 72.168 460.494 72.168ZM460.854 69.6C461.574 69.6 462.214 69.44 462.774 69.12C463.35 68.8 463.806 68.336 464.142 67.728C464.494 67.12 464.67 66.408 464.67 65.592C464.67 64.76 464.494 64.048 464.142 63.456C463.806 62.848 463.35 62.384 462.774 62.064C462.214 61.744 461.574 61.584 460.854 61.584C460.134 61.584 459.486 61.744 458.91 62.064C458.35 62.384 457.894 62.848 457.542 63.456C457.206 64.048 457.038 64.76 457.038 65.592C457.038 66.408 457.206 67.12 457.542 67.728C457.894 68.336 458.35 68.8 458.91 69.12C459.486 69.44 460.134 69.6 460.854 69.6ZM464.742 72V68.976L464.862 65.568L464.622 62.16V54.192H467.598V72H464.742ZM481.011 72L476.307 59.184H479.139L483.171 70.488H481.827L486.051 59.184H488.571L492.675 70.488H491.355L495.507 59.184H498.171L493.443 72H490.563L486.819 61.992H487.707L483.891 72H481.011ZM505.906 72.168C504.482 72.168 503.234 71.888 502.162 71.328C501.106 70.752 500.282 69.968 499.69 68.976C499.114 67.984 498.826 66.856 498.826 65.592C498.826 64.312 499.106 63.184 499.666 62.208C500.242 61.216 501.026 60.44 502.018 59.88C503.026 59.32 504.17 59.04 505.45 59.04C506.698 59.04 507.81 59.312 508.786 59.856C509.762 60.4 510.53 61.168 511.09 62.16C511.65 63.152 511.93 64.32 511.93 65.664C511.93 65.792 511.922 65.936 511.906 66.096C511.906 66.256 511.898 66.408 511.882 66.552H501.202V64.56H510.298L509.122 65.184C509.138 64.448 508.986 63.8 508.666 63.24C508.346 62.68 507.906 62.24 507.346 61.92C506.802 61.6 506.17 61.44 505.45 61.44C504.714 61.44 504.066 61.6 503.506 61.92C502.962 62.24 502.53 62.688 502.21 63.264C501.906 63.824 501.754 64.488 501.754 65.256V65.736C501.754 66.504 501.93 67.184 502.282 67.776C502.634 68.368 503.13 68.824 503.77 69.144C504.41 69.464 505.146 69.624 505.978 69.624C506.698 69.624 507.346 69.512 507.922 69.288C508.498 69.064 509.01 68.712 509.458 68.232L511.066 70.08C510.49 70.752 509.762 71.272 508.882 71.64C508.018 71.992 507.026 72.168 505.906 72.168ZM521.853 72V58.464C521.853 57.12 522.245 56.048 523.029 55.248C523.829 54.432 524.965 54.024 526.437 54.024C526.965 54.024 527.461 54.08 527.925 54.192C528.405 54.304 528.805 54.48 529.125 54.72L528.309 56.976C528.085 56.8 527.829 56.672 527.541 56.592C527.253 56.496 526.957 56.448 526.653 56.448C526.029 56.448 525.557 56.624 525.237 56.976C524.917 57.312 524.757 57.824 524.757 58.512V59.952L524.853 61.296V72H521.853ZM519.741 61.68V59.28H528.285V61.68H519.741ZM537.966 72V69.408L537.798 68.856V64.32C537.798 63.44 537.534 62.76 537.006 62.28C536.478 61.784 535.678 61.536 534.606 61.536C533.886 61.536 533.174 61.648 532.47 61.872C531.782 62.096 531.198 62.408 530.718 62.808L529.542 60.624C530.23 60.096 531.046 59.704 531.99 59.448C532.95 59.176 533.942 59.04 534.966 59.04C536.822 59.04 538.254 59.488 539.262 60.384C540.286 61.264 540.798 62.632 540.798 64.488V72H537.966ZM533.934 72.168C532.974 72.168 532.134 72.008 531.414 71.688C530.694 71.352 530.134 70.896 529.734 70.32C529.35 69.728 529.158 69.064 529.158 68.328C529.158 67.608 529.326 66.96 529.662 66.384C530.014 65.808 530.582 65.352 531.366 65.016C532.15 64.68 533.19 64.512 534.486 64.512H538.206V66.504H534.702C533.678 66.504 532.99 66.672 532.638 67.008C532.286 67.328 532.11 67.728 532.11 68.208C532.11 68.752 532.326 69.184 532.758 69.504C533.19 69.824 533.79 69.984 534.558 69.984C535.294 69.984 535.95 69.816 536.526 69.48C537.118 69.144 537.542 68.648 537.798 67.992L538.302 69.792C538.014 70.544 537.494 71.128 536.742 71.544C536.006 71.96 535.07 72.168 533.934 72.168ZM544.648 72V54.192H547.648V72H544.648ZM551.585 72V54.192H554.585V72H551.585ZM557.731 61.464L559.123 56.136L559.531 57.936C558.971 57.936 558.499 57.76 558.115 57.408C557.747 57.056 557.563 56.584 557.563 55.992C557.563 55.4 557.747 54.928 558.115 54.576C558.499 54.208 558.963 54.024 559.507 54.024C560.067 54.024 560.531 54.208 560.899 54.576C561.267 54.944 561.451 55.416 561.451 55.992C561.451 56.168 561.435 56.352 561.403 56.544C561.387 56.72 561.339 56.928 561.259 57.168C561.195 57.392 561.083 57.688 560.923 58.056L559.675 61.464H557.731ZM152.566 101V86.84H146.998V84.2H161.254V86.84H155.686V101H152.566ZM170.58 88.04C171.604 88.04 172.516 88.24 173.316 88.64C174.132 89.04 174.772 89.656 175.236 90.488C175.7 91.304 175.932 92.36 175.932 93.656V101H172.932V94.04C172.932 92.904 172.66 92.056 172.116 91.496C171.588 90.936 170.844 90.656 169.884 90.656C169.18 90.656 168.556 90.8 168.012 91.088C167.468 91.376 167.044 91.808 166.74 92.384C166.452 92.944 166.308 93.656 166.308 94.52V101H163.308V83.192H166.308V91.64L165.66 90.584C166.108 89.768 166.756 89.144 167.604 88.712C168.468 88.264 169.46 88.04 170.58 88.04ZM187.634 101V98.408L187.466 97.856V93.32C187.466 92.44 187.202 91.76 186.674 91.28C186.146 90.784 185.346 90.536 184.274 90.536C183.554 90.536 182.842 90.648 182.138 90.872C181.45 91.096 180.866 91.408 180.386 91.808L179.21 89.624C179.898 89.096 180.714 88.704 181.658 88.448C182.618 88.176 183.61 88.04 184.634 88.04C186.49 88.04 187.922 88.488 188.93 89.384C189.954 90.264 190.466 91.632 190.466 93.488V101H187.634ZM183.602 101.168C182.642 101.168 181.802 101.008 181.082 100.688C180.362 100.352 179.802 99.896 179.402 99.32C179.018 98.728 178.826 98.064 178.826 97.328C178.826 96.608 178.994 95.96 179.33 95.384C179.682 94.808 180.25 94.352 181.034 94.016C181.818 93.68 182.858 93.512 184.154 93.512H187.874V95.504H184.37C183.346 95.504 182.658 95.672 182.306 96.008C181.954 96.328 181.778 96.728 181.778 97.208C181.778 97.752 181.994 98.184 182.426 98.504C182.858 98.824 183.458 98.984 184.226 98.984C184.962 98.984 185.618 98.816 186.194 98.48C186.786 98.144 187.21 97.648 187.466 96.992L187.97 98.792C187.682 99.544 187.162 100.128 186.41 100.544C185.674 100.96 184.738 101.168 183.602 101.168ZM199.14 101.168C197.732 101.168 196.644 100.808 195.876 100.088C195.108 99.352 194.724 98.272 194.724 96.848V85.352H197.724V96.776C197.724 97.384 197.876 97.856 198.18 98.192C198.5 98.528 198.94 98.696 199.5 98.696C200.172 98.696 200.732 98.52 201.18 98.168L202.02 100.304C201.668 100.592 201.236 100.808 200.724 100.952C200.212 101.096 199.684 101.168 199.14 101.168ZM192.612 90.68V88.28H201.156V90.68H192.612ZM203.696 90.464L205.088 85.136L205.496 86.936C204.936 86.936 204.464 86.76 204.08 86.408C203.712 86.056 203.528 85.584 203.528 84.992C203.528 84.4 203.712 83.928 204.08 83.576C204.464 83.208 204.928 83.024 205.472 83.024C206.032 83.024 206.496 83.208 206.864 83.576C207.232 83.944 207.416 84.416 207.416 84.992C207.416 85.168 207.4 85.352 207.368 85.544C207.352 85.72 207.304 85.928 207.224 86.168C207.16 86.392 207.048 86.688 206.888 87.056L205.64 90.464H203.696ZM213.908 101.168C212.836 101.168 211.804 101.032 210.812 100.76C209.836 100.472 209.06 100.128 208.484 99.728L209.636 97.448C210.212 97.816 210.9 98.12 211.7 98.36C212.5 98.6 213.3 98.72 214.1 98.72C215.044 98.72 215.724 98.592 216.14 98.336C216.572 98.08 216.788 97.736 216.788 97.304C216.788 96.952 216.644 96.688 216.356 96.512C216.068 96.32 215.692 96.176 215.228 96.08C214.764 95.984 214.244 95.896 213.668 95.816C213.108 95.736 212.54 95.632 211.964 95.504C211.404 95.36 210.892 95.16 210.428 94.904C209.964 94.632 209.588 94.272 209.3 93.824C209.012 93.376 208.868 92.784 208.868 92.048C208.868 91.232 209.1 90.528 209.564 89.936C210.028 89.328 210.676 88.864 211.508 88.544C212.356 88.208 213.356 88.04 214.508 88.04C215.372 88.04 216.244 88.136 217.124 88.328C218.004 88.52 218.732 88.792 219.308 89.144L218.156 91.424C217.548 91.056 216.932 90.808 216.308 90.68C215.7 90.536 215.092 90.464 214.484 90.464C213.572 90.464 212.892 90.6 212.444 90.872C212.012 91.144 211.796 91.488 211.796 91.904C211.796 92.288 211.94 92.576 212.228 92.768C212.516 92.96 212.892 93.112 213.356 93.224C213.82 93.336 214.332 93.432 214.892 93.512C215.468 93.576 216.036 93.68 216.596 93.824C217.156 93.968 217.668 94.168 218.132 94.424C218.612 94.664 218.996 95.008 219.284 95.456C219.572 95.904 219.716 96.488 219.716 97.208C219.716 98.008 219.476 98.704 218.996 99.296C218.532 99.888 217.868 100.352 217.004 100.688C216.14 101.008 215.108 101.168 213.908 101.168ZM236.205 88.04C237.229 88.04 238.141 88.24 238.941 88.64C239.757 89.04 240.397 89.656 240.861 90.488C241.325 91.304 241.557 92.36 241.557 93.656V101H238.557V94.04C238.557 92.904 238.285 92.056 237.741 91.496C237.213 90.936 236.469 90.656 235.509 90.656C234.805 90.656 234.181 90.8 233.637 91.088C233.093 91.376 232.669 91.808 232.365 92.384C232.077 92.944 231.933 93.656 231.933 94.52V101H228.933V83.192H231.933V91.64L231.285 90.584C231.733 89.768 232.381 89.144 233.229 88.712C234.093 88.264 235.085 88.04 236.205 88.04ZM251.146 101.168C249.834 101.168 248.666 100.888 247.642 100.328C246.618 99.752 245.81 98.968 245.218 97.976C244.626 96.984 244.33 95.856 244.33 94.592C244.33 93.312 244.626 92.184 245.218 91.208C245.81 90.216 246.618 89.44 247.642 88.88C248.666 88.32 249.834 88.04 251.146 88.04C252.474 88.04 253.65 88.32 254.674 88.88C255.714 89.44 256.522 90.208 257.098 91.184C257.69 92.16 257.986 93.296 257.986 94.592C257.986 95.856 257.69 96.984 257.098 97.976C256.522 98.968 255.714 99.752 254.674 100.328C253.65 100.888 252.474 101.168 251.146 101.168ZM251.146 98.6C251.882 98.6 252.538 98.44 253.114 98.12C253.69 97.8 254.138 97.336 254.458 96.728C254.794 96.12 254.962 95.408 254.962 94.592C254.962 93.76 254.794 93.048 254.458 92.456C254.138 91.848 253.69 91.384 253.114 91.064C252.538 90.744 251.89 90.584 251.17 90.584C250.434 90.584 249.778 90.744 249.202 91.064C248.642 91.384 248.194 91.848 247.858 92.456C247.522 93.048 247.354 93.76 247.354 94.592C247.354 95.408 247.522 96.12 247.858 96.728C248.194 97.336 248.642 97.8 249.202 98.12C249.778 98.44 250.426 98.6 251.146 98.6ZM263.335 101L258.631 88.184H261.463L265.495 99.488H264.151L268.375 88.184H270.895L274.999 99.488H273.679L277.831 88.184H280.495L275.767 101H272.887L269.143 90.992H270.031L266.215 101H263.335ZM292.023 101L287.319 88.184H290.151L294.183 99.488H292.839L297.063 88.184H299.583L303.687 99.488H302.367L306.519 88.184H309.183L304.455 101H301.575L297.831 90.992H298.719L294.903 101H292.023ZM316.918 101.168C315.494 101.168 314.246 100.888 313.174 100.328C312.118 99.752 311.294 98.968 310.702 97.976C310.126 96.984 309.838 95.856 309.838 94.592C309.838 93.312 310.118 92.184 310.678 91.208C311.254 90.216 312.038 89.44 313.03 88.88C314.038 88.32 315.182 88.04 316.462 88.04C317.71 88.04 318.822 88.312 319.798 88.856C320.774 89.4 321.542 90.168 322.102 91.16C322.662 92.152 322.942 93.32 322.942 94.664C322.942 94.792 322.934 94.936 322.918 95.096C322.918 95.256 322.91 95.408 322.894 95.552H312.214V93.56H321.31L320.134 94.184C320.15 93.448 319.998 92.8 319.678 92.24C319.358 91.68 318.918 91.24 318.358 90.92C317.814 90.6 317.182 90.44 316.462 90.44C315.726 90.44 315.078 90.6 314.518 90.92C313.974 91.24 313.542 91.688 313.222 92.264C312.918 92.824 312.766 93.488 312.766 94.256V94.736C312.766 95.504 312.942 96.184 313.294 96.776C313.646 97.368 314.142 97.824 314.782 98.144C315.422 98.464 316.158 98.624 316.99 98.624C317.71 98.624 318.358 98.512 318.934 98.288C319.51 98.064 320.022 97.712 320.47 97.232L322.078 99.08C321.502 99.752 320.774 100.272 319.894 100.64C319.03 100.992 318.038 101.168 316.918 101.168ZM335.288 101L330.584 88.184H333.416L337.448 99.488H336.104L340.328 88.184H342.848L346.952 99.488H345.632L349.784 88.184H352.448L347.72 101H344.84L341.096 90.992H341.984L338.168 101H335.288ZM359.919 101.168C358.607 101.168 357.439 100.888 356.415 100.328C355.391 99.752 354.583 98.968 353.991 97.976C353.399 96.984 353.103 95.856 353.103 94.592C353.103 93.312 353.399 92.184 353.991 91.208C354.583 90.216 355.391 89.44 356.415 88.88C357.439 88.32 358.607 88.04 359.919 88.04C361.247 88.04 362.423 88.32 363.447 88.88C364.487 89.44 365.295 90.208 365.871 91.184C366.463 92.16 366.759 93.296 366.759 94.592C366.759 95.856 366.463 96.984 365.871 97.976C365.295 98.968 364.487 99.752 363.447 100.328C362.423 100.888 361.247 101.168 359.919 101.168ZM359.919 98.6C360.655 98.6 361.311 98.44 361.887 98.12C362.463 97.8 362.911 97.336 363.231 96.728C363.567 96.12 363.735 95.408 363.735 94.592C363.735 93.76 363.567 93.048 363.231 92.456C362.911 91.848 362.463 91.384 361.887 91.064C361.311 90.744 360.663 90.584 359.943 90.584C359.207 90.584 358.551 90.744 357.975 91.064C357.415 91.384 356.967 91.848 356.631 92.456C356.295 93.048 356.127 93.76 356.127 94.592C356.127 95.408 356.295 96.12 356.631 96.728C356.967 97.336 357.415 97.8 357.975 98.12C358.551 98.44 359.199 98.6 359.919 98.6ZM369.628 101V88.184H372.484V91.712L372.148 90.68C372.532 89.816 373.132 89.16 373.948 88.712C374.78 88.264 375.812 88.04 377.044 88.04V90.896C376.916 90.864 376.796 90.848 376.684 90.848C376.572 90.832 376.46 90.824 376.348 90.824C375.212 90.824 374.308 91.16 373.636 91.832C372.964 92.488 372.628 93.472 372.628 94.784V101H369.628ZM382.037 98.144L382.109 94.376L388.805 88.184H392.405L386.717 93.896L385.133 95.216L382.037 98.144ZM379.589 101V83.192H382.589V101H379.589ZM389.261 101L384.581 95.216L386.477 92.816L392.909 101H389.261ZM396.041 101.168C395.497 101.168 395.033 100.984 394.649 100.616C394.265 100.232 394.073 99.752 394.073 99.176C394.073 98.568 394.265 98.088 394.649 97.736C395.033 97.368 395.497 97.184 396.041 97.184C396.585 97.184 397.049 97.368 397.433 97.736C397.817 98.088 398.009 98.568 398.009 99.176C398.009 99.752 397.817 100.232 397.433 100.616C397.049 100.984 396.585 101.168 396.041 101.168ZM418.454 101L412.886 84.2H416.126L421.094 99.392H419.486L424.646 84.2H427.526L432.542 99.392H430.982L436.07 84.2H439.046L433.478 101H430.166L425.582 87.296H426.446L421.79 101H418.454ZM446.363 101.168C444.939 101.168 443.691 100.888 442.619 100.328C441.563 99.752 440.739 98.968 440.147 97.976C439.571 96.984 439.283 95.856 439.283 94.592C439.283 93.312 439.563 92.184 440.123 91.208C440.699 90.216 441.483 89.44 442.475 88.88C443.483 88.32 444.627 88.04 445.907 88.04C447.155 88.04 448.267 88.312 449.243 88.856C450.219 89.4 450.987 90.168 451.547 91.16C452.107 92.152 452.387 93.32 452.387 94.664C452.387 94.792 452.379 94.936 452.363 95.096C452.363 95.256 452.355 95.408 452.339 95.552H441.659V93.56H450.755L449.579 94.184C449.595 93.448 449.443 92.8 449.123 92.24C448.803 91.68 448.363 91.24 447.803 90.92C447.259 90.6 446.627 90.44 445.907 90.44C445.171 90.44 444.523 90.6 443.963 90.92C443.419 91.24 442.987 91.688 442.667 92.264C442.363 92.824 442.211 93.488 442.211 94.256V94.736C442.211 95.504 442.387 96.184 442.739 96.776C443.091 97.368 443.587 97.824 444.227 98.144C444.867 98.464 445.603 98.624 446.435 98.624C447.155 98.624 447.803 98.512 448.379 98.288C448.955 98.064 449.467 97.712 449.915 97.232L451.523 99.08C450.947 99.752 450.219 100.272 449.339 100.64C448.475 100.992 447.483 101.168 446.363 101.168ZM464.734 101L460.03 88.184H462.862L466.894 99.488H465.55L469.774 88.184H472.294L476.398 99.488H475.078L479.23 88.184H481.894L477.166 101H474.286L470.542 90.992H471.43L467.614 101H464.734ZM489.365 101.168C488.053 101.168 486.885 100.888 485.861 100.328C484.837 99.752 484.029 98.968 483.437 97.976C482.845 96.984 482.549 95.856 482.549 94.592C482.549 93.312 482.845 92.184 483.437 91.208C484.029 90.216 484.837 89.44 485.861 88.88C486.885 88.32 488.053 88.04 489.365 88.04C490.693 88.04 491.869 88.32 492.893 88.88C493.933 89.44 494.741 90.208 495.317 91.184C495.909 92.16 496.205 93.296 496.205 94.592C496.205 95.856 495.909 96.984 495.317 97.976C494.741 98.968 493.933 99.752 492.893 100.328C491.869 100.888 490.693 101.168 489.365 101.168ZM489.365 98.6C490.101 98.6 490.757 98.44 491.333 98.12C491.909 97.8 492.357 97.336 492.677 96.728C493.013 96.12 493.181 95.408 493.181 94.592C493.181 93.76 493.013 93.048 492.677 92.456C492.357 91.848 491.909 91.384 491.333 91.064C490.757 90.744 490.109 90.584 489.389 90.584C488.653 90.584 487.997 90.744 487.421 91.064C486.861 91.384 486.413 91.848 486.077 92.456C485.741 93.048 485.573 93.76 485.573 94.592C485.573 95.408 485.741 96.12 486.077 96.728C486.413 97.336 486.861 97.8 487.421 98.12C487.997 98.44 488.645 98.6 489.365 98.6ZM499.073 101V88.184H501.929V91.712L501.593 90.68C501.977 89.816 502.577 89.16 503.393 88.712C504.225 88.264 505.257 88.04 506.489 88.04V90.896C506.361 90.864 506.241 90.848 506.129 90.848C506.017 90.832 505.905 90.824 505.793 90.824C504.657 90.824 503.753 91.16 503.081 91.832C502.409 92.488 502.073 93.472 502.073 94.784V101H499.073ZM511.482 98.144L511.554 94.376L518.25 88.184H521.85L516.162 93.896L514.578 95.216L511.482 98.144ZM509.034 101V83.192H512.034V101H509.034ZM518.706 101L514.026 95.216L515.922 92.816L522.354 101H518.706ZM538.821 101V98.408L538.653 97.856V93.32C538.653 92.44 538.389 91.76 537.861 91.28C537.333 90.784 536.533 90.536 535.461 90.536C534.741 90.536 534.029 90.648 533.325 90.872C532.637 91.096 532.053 91.408 531.573 91.808L530.397 89.624C531.085 89.096 531.901 88.704 532.845 88.448C533.805 88.176 534.797 88.04 535.821 88.04C537.677 88.04 539.109 88.488 540.117 89.384C541.141 90.264 541.653 91.632 541.653 93.488V101H538.821ZM534.789 101.168C533.829 101.168 532.989 101.008 532.269 100.688C531.549 100.352 530.989 99.896 530.589 99.32C530.205 98.728 530.013 98.064 530.013 97.328C530.013 96.608 530.181 95.96 530.517 95.384C530.869 94.808 531.437 94.352 532.221 94.016C533.005 93.68 534.045 93.512 535.341 93.512H539.061V95.504H535.557C534.533 95.504 533.845 95.672 533.493 96.008C533.141 96.328 532.965 96.728 532.965 97.208C532.965 97.752 533.181 98.184 533.613 98.504C534.045 98.824 534.645 98.984 535.413 98.984C536.149 98.984 536.805 98.816 537.381 98.48C537.973 98.144 538.397 97.648 538.653 96.992L539.157 98.792C538.869 99.544 538.349 100.128 537.597 100.544C536.861 100.96 535.925 101.168 534.789 101.168ZM549.463 101.168C548.391 101.168 547.359 101.032 546.367 100.76C545.391 100.472 544.615 100.128 544.039 99.728L545.191 97.448C545.767 97.816 546.455 98.12 547.255 98.36C548.055 98.6 548.855 98.72 549.655 98.72C550.599 98.72 551.279 98.592 551.695 98.336C552.127 98.08 552.343 97.736 552.343 97.304C552.343 96.952 552.199 96.688 551.911 96.512C551.623 96.32 551.247 96.176 550.783 96.08C550.319 95.984 549.799 95.896 549.223 95.816C548.663 95.736 548.095 95.632 547.519 95.504C546.959 95.36 546.447 95.16 545.983 94.904C545.519 94.632 545.143 94.272 544.855 93.824C544.567 93.376 544.423 92.784 544.423 92.048C544.423 91.232 544.655 90.528 545.119 89.936C545.583 89.328 546.231 88.864 547.063 88.544C547.911 88.208 548.911 88.04 550.063 88.04C550.927 88.04 551.799 88.136 552.679 88.328C553.559 88.52 554.287 88.792 554.863 89.144L553.711 91.424C553.103 91.056 552.487 90.808 551.863 90.68C551.255 90.536 550.647 90.464 550.039 90.464C549.127 90.464 548.447 90.6 547.999 90.872C547.567 91.144 547.351 91.488 547.351 91.904C547.351 92.288 547.495 92.576 547.783 92.768C548.071 92.96 548.447 93.112 548.911 93.224C549.375 93.336 549.887 93.432 550.447 93.512C551.023 93.576 551.591 93.68 552.151 93.824C552.711 93.968 553.223 94.168 553.687 94.424C554.167 94.664 554.551 95.008 554.839 95.456C555.127 95.904 555.271 96.488 555.271 97.208C555.271 98.008 555.031 98.704 554.551 99.296C554.087 99.888 553.423 100.352 552.559 100.688C551.695 101.008 550.663 101.168 549.463 101.168ZM572.384 101V98.408L572.216 97.856V93.32C572.216 92.44 571.952 91.76 571.424 91.28C570.896 90.784 570.096 90.536 569.024 90.536C568.304 90.536 567.592 90.648 566.888 90.872C566.2 91.096 565.616 91.408 565.136 91.808L563.96 89.624C564.648 89.096 565.464 88.704 566.408 88.448C567.368 88.176 568.36 88.04 569.384 88.04C571.24 88.04 572.672 88.488 573.68 89.384C574.704 90.264 575.216 91.632 575.216 93.488V101H572.384ZM568.352 101.168C567.392 101.168 566.552 101.008 565.832 100.688C565.112 100.352 564.552 99.896 564.152 99.32C563.768 98.728 563.576 98.064 563.576 97.328C563.576 96.608 563.744 95.96 564.08 95.384C564.432 94.808 565 94.352 565.784 94.016C566.568 93.68 567.608 93.512 568.904 93.512H572.624V95.504H569.12C568.096 95.504 567.408 95.672 567.056 96.008C566.704 96.328 566.528 96.728 566.528 97.208C566.528 97.752 566.744 98.184 567.176 98.504C567.608 98.824 568.208 98.984 568.976 98.984C569.712 98.984 570.368 98.816 570.944 98.48C571.536 98.144 571.96 97.648 572.216 96.992L572.72 98.792C572.432 99.544 571.912 100.128 571.16 100.544C570.424 100.96 569.488 101.168 568.352 101.168ZM156.987 130.168C155.579 130.168 154.491 129.808 153.723 129.088C152.955 128.352 152.571 127.272 152.571 125.848V114.352H155.571V125.776C155.571 126.384 155.723 126.856 156.027 127.192C156.347 127.528 156.787 127.696 157.347 127.696C158.019 127.696 158.579 127.52 159.027 127.168L159.867 129.304C159.515 129.592 159.083 129.808 158.571 129.952C158.059 130.096 157.531 130.168 156.987 130.168ZM150.459 119.68V117.28H159.003V119.68H150.459ZM167.937 130.168C166.513 130.168 165.265 129.888 164.193 129.328C163.137 128.752 162.313 127.968 161.721 126.976C161.145 125.984 160.857 124.856 160.857 123.592C160.857 122.312 161.137 121.184 161.697 120.208C162.273 119.216 163.057 118.44 164.049 117.88C165.057 117.32 166.201 117.04 167.481 117.04C168.729 117.04 169.841 117.312 170.817 117.856C171.793 118.4 172.561 119.168 173.121 120.16C173.681 121.152 173.961 122.32 173.961 123.664C173.961 123.792 173.953 123.936 173.937 124.096C173.937 124.256 173.929 124.408 173.913 124.552H163.233V122.56H172.329L171.153 123.184C171.169 122.448 171.017 121.8 170.697 121.24C170.377 120.68 169.937 120.24 169.377 119.92C168.833 119.6 168.201 119.44 167.481 119.44C166.745 119.44 166.097 119.6 165.537 119.92C164.993 120.24 164.561 120.688 164.241 121.264C163.937 121.824 163.785 122.488 163.785 123.256V123.736C163.785 124.504 163.961 125.184 164.313 125.776C164.665 126.368 165.161 126.824 165.801 127.144C166.441 127.464 167.177 127.624 168.009 127.624C168.729 127.624 169.377 127.512 169.953 127.288C170.529 127.064 171.041 126.712 171.489 126.232L173.097 128.08C172.521 128.752 171.793 129.272 170.913 129.64C170.049 129.992 169.057 130.168 167.937 130.168ZM184.387 130V127.408L184.219 126.856V122.32C184.219 121.44 183.955 120.76 183.427 120.28C182.899 119.784 182.099 119.536 181.027 119.536C180.307 119.536 179.595 119.648 178.891 119.872C178.203 120.096 177.619 120.408 177.139 120.808L175.963 118.624C176.651 118.096 177.467 117.704 178.411 117.448C179.371 117.176 180.363 117.04 181.387 117.04C183.243 117.04 184.675 117.488 185.683 118.384C186.707 119.264 187.219 120.632 187.219 122.488V130H184.387ZM180.355 130.168C179.395 130.168 178.555 130.008 177.835 129.688C177.115 129.352 176.555 128.896 176.155 128.32C175.771 127.728 175.579 127.064 175.579 126.328C175.579 125.608 175.747 124.96 176.083 124.384C176.435 123.808 177.003 123.352 177.787 123.016C178.571 122.68 179.611 122.512 180.907 122.512H184.627V124.504H181.123C180.099 124.504 179.411 124.672 179.059 125.008C178.707 125.328 178.531 125.728 178.531 126.208C178.531 126.752 178.747 127.184 179.179 127.504C179.611 127.824 180.211 127.984 180.979 127.984C181.715 127.984 182.371 127.816 182.947 127.48C183.539 127.144 183.963 126.648 184.219 125.992L184.723 127.792C184.435 128.544 183.915 129.128 183.163 129.544C182.427 129.96 181.491 130.168 180.355 130.168ZM207.246 117.04C208.27 117.04 209.174 117.24 209.958 117.64C210.758 118.04 211.382 118.656 211.83 119.488C212.278 120.304 212.502 121.36 212.502 122.656V130H209.502V123.04C209.502 121.904 209.254 121.056 208.758 120.496C208.262 119.936 207.55 119.656 206.622 119.656C205.966 119.656 205.382 119.8 204.87 120.088C204.374 120.376 203.982 120.8 203.694 121.36C203.422 121.92 203.286 122.632 203.286 123.496V130H200.286V123.04C200.286 121.904 200.038 121.056 199.542 120.496C199.046 119.936 198.334 119.656 197.406 119.656C196.75 119.656 196.166 119.8 195.654 120.088C195.158 120.376 194.766 120.8 194.478 121.36C194.206 121.92 194.07 122.632 194.07 123.496V130H191.07V117.184H193.926V120.592L193.422 119.584C193.854 118.752 194.478 118.12 195.294 117.688C196.126 117.256 197.07 117.04 198.126 117.04C199.326 117.04 200.366 117.336 201.246 117.928C202.142 118.52 202.734 119.416 203.022 120.616L201.846 120.208C202.262 119.248 202.95 118.48 203.91 117.904C204.87 117.328 205.982 117.04 207.246 117.04ZM226.928 130.168C225.856 130.168 224.824 130.032 223.832 129.76C222.856 129.472 222.08 129.128 221.504 128.728L222.656 126.448C223.232 126.816 223.92 127.12 224.72 127.36C225.52 127.6 226.32 127.72 227.12 127.72C228.064 127.72 228.744 127.592 229.16 127.336C229.592 127.08 229.808 126.736 229.808 126.304C229.808 125.952 229.664 125.688 229.376 125.512C229.088 125.32 228.712 125.176 228.248 125.08C227.784 124.984 227.264 124.896 226.688 124.816C226.128 124.736 225.56 124.632 224.984 124.504C224.424 124.36 223.912 124.16 223.448 123.904C222.984 123.632 222.608 123.272 222.32 122.824C222.032 122.376 221.888 121.784 221.888 121.048C221.888 120.232 222.12 119.528 222.584 118.936C223.048 118.328 223.696 117.864 224.528 117.544C225.376 117.208 226.376 117.04 227.528 117.04C228.392 117.04 229.264 117.136 230.144 117.328C231.024 117.52 231.752 117.792 232.328 118.144L231.176 120.424C230.568 120.056 229.952 119.808 229.328 119.68C228.72 119.536 228.112 119.464 227.504 119.464C226.592 119.464 225.912 119.6 225.464 119.872C225.032 120.144 224.816 120.488 224.816 120.904C224.816 121.288 224.96 121.576 225.248 121.768C225.536 121.96 225.912 122.112 226.376 122.224C226.84 122.336 227.352 122.432 227.912 122.512C228.488 122.576 229.056 122.68 229.616 122.824C230.176 122.968 230.688 123.168 231.152 123.424C231.632 123.664 232.016 124.008 232.304 124.456C232.592 124.904 232.736 125.488 232.736 126.208C232.736 127.008 232.496 127.704 232.016 128.296C231.552 128.888 230.888 129.352 230.024 129.688C229.16 130.008 228.128 130.168 226.928 130.168ZM241.08 130.168C239.768 130.168 238.6 129.888 237.576 129.328C236.552 128.752 235.744 127.968 235.152 126.976C234.56 125.984 234.264 124.856 234.264 123.592C234.264 122.312 234.56 121.184 235.152 120.208C235.744 119.216 236.552 118.44 237.576 117.88C238.6 117.32 239.768 117.04 241.08 117.04C242.408 117.04 243.584 117.32 244.608 117.88C245.648 118.44 246.456 119.208 247.032 120.184C247.624 121.16 247.92 122.296 247.92 123.592C247.92 124.856 247.624 125.984 247.032 126.976C246.456 127.968 245.648 128.752 244.608 129.328C243.584 129.888 242.408 130.168 241.08 130.168ZM241.08 127.6C241.816 127.6 242.472 127.44 243.048 127.12C243.624 126.8 244.072 126.336 244.392 125.728C244.728 125.12 244.896 124.408 244.896 123.592C244.896 122.76 244.728 122.048 244.392 121.456C244.072 120.848 243.624 120.384 243.048 120.064C242.472 119.744 241.824 119.584 241.104 119.584C240.368 119.584 239.712 119.744 239.136 120.064C238.576 120.384 238.128 120.848 237.792 121.456C237.456 122.048 237.288 122.76 237.288 123.592C237.288 124.408 237.456 125.12 237.792 125.728C238.128 126.336 238.576 126.8 239.136 127.12C239.712 127.44 240.36 127.6 241.08 127.6ZM260.253 130L255.549 117.184H258.381L262.413 128.488H261.069L265.293 117.184H267.813L271.917 128.488H270.597L274.749 117.184H277.413L272.685 130H269.805L266.061 119.992H266.949L263.133 130H260.253ZM285.148 130.168C283.724 130.168 282.476 129.888 281.404 129.328C280.348 128.752 279.524 127.968 278.932 126.976C278.356 125.984 278.068 124.856 278.068 123.592C278.068 122.312 278.348 121.184 278.908 120.208C279.484 119.216 280.268 118.44 281.26 117.88C282.268 117.32 283.412 117.04 284.692 117.04C285.94 117.04 287.052 117.312 288.028 117.856C289.004 118.4 289.772 119.168 290.332 120.16C290.892 121.152 291.172 122.32 291.172 123.664C291.172 123.792 291.164 123.936 291.148 124.096C291.148 124.256 291.14 124.408 291.124 124.552H280.444V122.56H289.54L288.364 123.184C288.38 122.448 288.228 121.8 287.908 121.24C287.588 120.68 287.148 120.24 286.588 119.92C286.044 119.6 285.412 119.44 284.692 119.44C283.956 119.44 283.308 119.6 282.748 119.92C282.204 120.24 281.772 120.688 281.452 121.264C281.148 121.824 280.996 122.488 280.996 123.256V123.736C280.996 124.504 281.172 125.184 281.524 125.776C281.876 126.368 282.372 126.824 283.012 127.144C283.652 127.464 284.388 127.624 285.22 127.624C285.94 127.624 286.588 127.512 287.164 127.288C287.74 127.064 288.252 126.712 288.7 126.232L290.308 128.08C289.732 128.752 289.004 129.272 288.124 129.64C287.26 129.992 286.268 130.168 285.148 130.168ZM306.567 130.168C305.223 130.168 304.023 129.888 302.967 129.328C301.927 128.752 301.111 127.968 300.519 126.976C299.927 125.984 299.631 124.856 299.631 123.592C299.631 122.312 299.927 121.184 300.519 120.208C301.111 119.216 301.927 118.44 302.967 117.88C304.023 117.32 305.223 117.04 306.567 117.04C307.815 117.04 308.911 117.296 309.855 117.808C310.815 118.304 311.543 119.04 312.039 120.016L309.735 121.36C309.351 120.752 308.879 120.304 308.319 120.016C307.775 119.728 307.183 119.584 306.543 119.584C305.807 119.584 305.143 119.744 304.551 120.064C303.959 120.384 303.495 120.848 303.159 121.456C302.823 122.048 302.655 122.76 302.655 123.592C302.655 124.424 302.823 125.144 303.159 125.752C303.495 126.344 303.959 126.8 304.551 127.12C305.143 127.44 305.807 127.6 306.543 127.6C307.183 127.6 307.775 127.456 308.319 127.168C308.879 126.88 309.351 126.432 309.735 125.824L312.039 127.168C311.543 128.128 310.815 128.872 309.855 129.4C308.911 129.912 307.815 130.168 306.567 130.168ZM322.528 130V127.408L322.36 126.856V122.32C322.36 121.44 322.096 120.76 321.568 120.28C321.04 119.784 320.24 119.536 319.168 119.536C318.448 119.536 317.736 119.648 317.032 119.872C316.344 120.096 315.76 120.408 315.28 120.808L314.104 118.624C314.792 118.096 315.608 117.704 316.552 117.448C317.512 117.176 318.504 117.04 319.528 117.04C321.384 117.04 322.816 117.488 323.824 118.384C324.848 119.264 325.36 120.632 325.36 122.488V130H322.528ZM318.496 130.168C317.536 130.168 316.696 130.008 315.976 129.688C315.256 129.352 314.696 128.896 314.296 128.32C313.912 127.728 313.72 127.064 313.72 126.328C313.72 125.608 313.888 124.96 314.224 124.384C314.576 123.808 315.144 123.352 315.928 123.016C316.712 122.68 317.752 122.512 319.048 122.512H322.768V124.504H319.264C318.24 124.504 317.552 124.672 317.2 125.008C316.848 125.328 316.672 125.728 316.672 126.208C316.672 126.752 316.888 127.184 317.32 127.504C317.752 127.824 318.352 127.984 319.12 127.984C319.856 127.984 320.512 127.816 321.088 127.48C321.68 127.144 322.104 126.648 322.36 125.992L322.864 127.792C322.576 128.544 322.056 129.128 321.304 129.544C320.568 129.96 319.632 130.168 318.496 130.168ZM336.482 117.04C337.506 117.04 338.418 117.24 339.218 117.64C340.034 118.04 340.674 118.656 341.138 119.488C341.602 120.304 341.834 121.36 341.834 122.656V130H338.834V123.04C338.834 121.904 338.562 121.056 338.018 120.496C337.49 119.936 336.746 119.656 335.786 119.656C335.082 119.656 334.458 119.8 333.914 120.088C333.37 120.376 332.946 120.808 332.642 121.384C332.354 121.944 332.21 122.656 332.21 123.52V130H329.21V117.184H332.066V120.64L331.562 119.584C332.01 118.768 332.658 118.144 333.506 117.712C334.37 117.264 335.362 117.04 336.482 117.04ZM357.097 130.168C355.689 130.168 354.601 129.808 353.833 129.088C353.065 128.352 352.681 127.272 352.681 125.848V114.352H355.681V125.776C355.681 126.384 355.833 126.856 356.137 127.192C356.457 127.528 356.897 127.696 357.457 127.696C358.129 127.696 358.689 127.52 359.137 127.168L359.977 129.304C359.625 129.592 359.193 129.808 358.681 129.952C358.169 130.096 357.641 130.168 357.097 130.168ZM350.569 119.68V117.28H359.113V119.68H350.569ZM370.341 130V127.408L370.173 126.856V122.32C370.173 121.44 369.909 120.76 369.381 120.28C368.853 119.784 368.053 119.536 366.981 119.536C366.261 119.536 365.549 119.648 364.845 119.872C364.157 120.096 363.573 120.408 363.093 120.808L361.917 118.624C362.605 118.096 363.421 117.704 364.365 117.448C365.325 117.176 366.317 117.04 367.341 117.04C369.197 117.04 370.629 117.488 371.637 118.384C372.661 119.264 373.173 120.632 373.173 122.488V130H370.341ZM366.309 130.168C365.349 130.168 364.509 130.008 363.789 129.688C363.069 129.352 362.509 128.896 362.109 128.32C361.725 127.728 361.533 127.064 361.533 126.328C361.533 125.608 361.701 124.96 362.037 124.384C362.389 123.808 362.957 123.352 363.741 123.016C364.525 122.68 365.565 122.512 366.861 122.512H370.581V124.504H367.077C366.053 124.504 365.365 124.672 365.013 125.008C364.661 125.328 364.485 125.728 364.485 126.208C364.485 126.752 364.701 127.184 365.133 127.504C365.565 127.824 366.165 127.984 366.933 127.984C367.669 127.984 368.325 127.816 368.901 127.48C369.493 127.144 369.917 126.648 370.173 125.992L370.677 127.792C370.389 128.544 369.869 129.128 369.117 129.544C368.381 129.96 367.445 130.168 366.309 130.168ZM379.471 127.144L379.543 123.376L386.239 117.184H389.839L384.151 122.896L382.567 124.216L379.471 127.144ZM377.023 130V112.192H380.023V130H377.023ZM386.695 130L382.015 124.216L383.911 121.816L390.343 130H386.695ZM397.789 130.168C396.365 130.168 395.117 129.888 394.045 129.328C392.989 128.752 392.165 127.968 391.573 126.976C390.997 125.984 390.709 124.856 390.709 123.592C390.709 122.312 390.989 121.184 391.549 120.208C392.125 119.216 392.909 118.44 393.901 117.88C394.909 117.32 396.053 117.04 397.333 117.04C398.581 117.04 399.693 117.312 400.669 117.856C401.645 118.4 402.413 119.168 402.973 120.16C403.533 121.152 403.813 122.32 403.813 123.664C403.813 123.792 403.805 123.936 403.789 124.096C403.789 124.256 403.781 124.408 403.765 124.552H393.085V122.56H402.181L401.005 123.184C401.021 122.448 400.869 121.8 400.549 121.24C400.229 120.68 399.789 120.24 399.229 119.92C398.685 119.6 398.053 119.44 397.333 119.44C396.597 119.44 395.949 119.6 395.389 119.92C394.845 120.24 394.413 120.688 394.093 121.264C393.789 121.824 393.637 122.488 393.637 123.256V123.736C393.637 124.504 393.813 125.184 394.165 125.776C394.517 126.368 395.013 126.824 395.653 127.144C396.293 127.464 397.029 127.624 397.861 127.624C398.581 127.624 399.229 127.512 399.805 127.288C400.381 127.064 400.893 126.712 401.341 126.232L402.949 128.08C402.373 128.752 401.645 129.272 400.765 129.64C399.901 129.992 398.909 130.168 397.789 130.168ZM414.383 134.824C413.759 134.824 413.135 134.72 412.511 134.512C411.887 134.304 411.367 134.016 410.951 133.648L412.151 131.44C412.455 131.712 412.799 131.928 413.183 132.088C413.567 132.248 413.959 132.328 414.359 132.328C414.903 132.328 415.343 132.192 415.679 131.92C416.015 131.648 416.327 131.192 416.615 130.552L417.359 128.872L417.599 128.512L422.447 117.184H425.327L419.327 131.032C418.927 131.992 418.479 132.752 417.983 133.312C417.503 133.872 416.959 134.264 416.351 134.488C415.759 134.712 415.103 134.824 414.383 134.824ZM417.023 130.456L411.239 117.184H414.359L419.063 128.248L417.023 130.456ZM432.611 130.168C431.299 130.168 430.131 129.888 429.107 129.328C428.083 128.752 427.275 127.968 426.683 126.976C426.091 125.984 425.795 124.856 425.795 123.592C425.795 122.312 426.091 121.184 426.683 120.208C427.275 119.216 428.083 118.44 429.107 117.88C430.131 117.32 431.299 117.04 432.611 117.04C433.939 117.04 435.115 117.32 436.139 117.88C437.179 118.44 437.987 119.208 438.563 120.184C439.155 121.16 439.451 122.296 439.451 123.592C439.451 124.856 439.155 125.984 438.563 126.976C437.987 127.968 437.179 128.752 436.139 129.328C435.115 129.888 433.939 130.168 432.611 130.168ZM432.611 127.6C433.347 127.6 434.003 127.44 434.579 127.12C435.155 126.8 435.603 126.336 435.923 125.728C436.259 125.12 436.427 124.408 436.427 123.592C436.427 122.76 436.259 122.048 435.923 121.456C435.603 120.848 435.155 120.384 434.579 120.064C434.003 119.744 433.355 119.584 432.635 119.584C431.899 119.584 431.243 119.744 430.667 120.064C430.107 120.384 429.659 120.848 429.323 121.456C428.987 122.048 428.819 122.76 428.819 123.592C428.819 124.408 428.987 125.12 429.323 125.728C429.659 126.336 430.107 126.8 430.667 127.12C431.243 127.44 431.891 127.6 432.611 127.6ZM447.744 130.168C446.656 130.168 445.696 129.968 444.864 129.568C444.032 129.152 443.384 128.528 442.92 127.696C442.456 126.848 442.224 125.784 442.224 124.504V117.184H445.224V124.096C445.224 125.248 445.48 126.112 445.992 126.688C446.52 127.248 447.264 127.528 448.224 127.528C448.928 127.528 449.536 127.384 450.048 127.096C450.576 126.808 450.984 126.376 451.272 125.8C451.576 125.224 451.728 124.512 451.728 123.664V117.184H454.728V130H451.872V126.544L452.376 127.6C451.944 128.432 451.312 129.072 450.48 129.52C449.648 129.952 448.736 130.168 447.744 130.168ZM458.656 130V117.184H461.512V120.712L461.176 119.68C461.56 118.816 462.16 118.16 462.976 117.712C463.808 117.264 464.84 117.04 466.072 117.04V119.896C465.944 119.864 465.824 119.848 465.712 119.848C465.6 119.832 465.488 119.824 465.376 119.824C464.24 119.824 463.336 120.16 462.664 120.832C461.992 121.488 461.656 122.472 461.656 123.784V130H458.656ZM482.47 130.168C481.43 130.168 480.478 129.928 479.614 129.448C478.766 128.968 478.086 128.248 477.574 127.288C477.078 126.312 476.83 125.08 476.83 123.592C476.83 122.088 477.07 120.856 477.55 119.896C478.046 118.936 478.718 118.224 479.566 117.76C480.414 117.28 481.382 117.04 482.47 117.04C483.734 117.04 484.846 117.312 485.806 117.856C486.782 118.4 487.55 119.16 488.11 120.136C488.686 121.112 488.974 122.264 488.974 123.592C488.974 124.92 488.686 126.08 488.11 127.072C487.55 128.048 486.782 128.808 485.806 129.352C484.846 129.896 483.734 130.168 482.47 130.168ZM475.366 134.656V117.184H478.222V120.208L478.126 123.616L478.366 127.024V134.656H475.366ZM482.134 127.6C482.854 127.6 483.494 127.44 484.054 127.12C484.63 126.8 485.086 126.336 485.422 125.728C485.758 125.12 485.926 124.408 485.926 123.592C485.926 122.76 485.758 122.048 485.422 121.456C485.086 120.848 484.63 120.384 484.054 120.064C483.494 119.744 482.854 119.584 482.134 119.584C481.414 119.584 480.766 119.744 480.19 120.064C479.614 120.384 479.158 120.848 478.822 121.456C478.486 122.048 478.318 122.76 478.318 123.592C478.318 124.408 478.486 125.12 478.822 125.728C479.158 126.336 479.614 126.8 480.19 127.12C480.766 127.44 481.414 127.6 482.134 127.6ZM491.82 130V117.184H494.676V120.712L494.34 119.68C494.724 118.816 495.324 118.16 496.14 117.712C496.972 117.264 498.004 117.04 499.236 117.04V119.896C499.108 119.864 498.988 119.848 498.876 119.848C498.764 119.832 498.652 119.824 498.54 119.824C497.404 119.824 496.5 120.16 495.828 120.832C495.156 121.488 494.82 122.472 494.82 123.784V130H491.82ZM507.423 130.168C506.111 130.168 504.943 129.888 503.919 129.328C502.895 128.752 502.087 127.968 501.495 126.976C500.903 125.984 500.607 124.856 500.607 123.592C500.607 122.312 500.903 121.184 501.495 120.208C502.087 119.216 502.895 118.44 503.919 117.88C504.943 117.32 506.111 117.04 507.423 117.04C508.751 117.04 509.927 117.32 510.951 117.88C511.991 118.44 512.799 119.208 513.375 120.184C513.967 121.16 514.263 122.296 514.263 123.592C514.263 124.856 513.967 125.984 513.375 126.976C512.799 127.968 511.991 128.752 510.951 129.328C509.927 129.888 508.751 130.168 507.423 130.168ZM507.423 127.6C508.159 127.6 508.815 127.44 509.391 127.12C509.967 126.8 510.415 126.336 510.735 125.728C511.071 125.12 511.239 124.408 511.239 123.592C511.239 122.76 511.071 122.048 510.735 121.456C510.415 120.848 509.967 120.384 509.391 120.064C508.815 119.744 508.167 119.584 507.447 119.584C506.711 119.584 506.055 119.744 505.479 120.064C504.919 120.384 504.471 120.848 504.135 121.456C503.799 122.048 503.631 122.76 503.631 123.592C503.631 124.408 503.799 125.12 504.135 125.728C504.471 126.336 504.919 126.8 505.479 127.12C506.055 127.44 506.703 127.6 507.423 127.6ZM515.812 134.824C515.252 134.824 514.724 134.76 514.228 134.632C513.716 134.52 513.284 134.336 512.932 134.08L513.796 131.848C514.26 132.184 514.844 132.352 515.548 132.352C516.092 132.352 516.516 132.176 516.82 131.824C517.124 131.488 517.276 130.984 517.276 130.312V117.184H520.276V130.24C520.276 131.648 519.884 132.76 519.1 133.576C518.332 134.408 517.236 134.824 515.812 134.824ZM518.764 115.072C518.204 115.072 517.74 114.896 517.372 114.544C517.02 114.192 516.844 113.768 516.844 113.272C516.844 112.76 517.02 112.336 517.372 112C517.74 111.648 518.204 111.472 518.764 111.472C519.324 111.472 519.78 111.64 520.132 111.976C520.5 112.296 520.684 112.704 520.684 113.2C520.684 113.728 520.508 114.176 520.156 114.544C519.804 114.896 519.34 115.072 518.764 115.072ZM530.234 130.168C528.81 130.168 527.562 129.888 526.49 129.328C525.434 128.752 524.61 127.968 524.018 126.976C523.442 125.984 523.154 124.856 523.154 123.592C523.154 122.312 523.434 121.184 523.994 120.208C524.57 119.216 525.354 118.44 526.346 117.88C527.354 117.32 528.498 117.04 529.778 117.04C531.026 117.04 532.138 117.312 533.114 117.856C534.09 118.4 534.858 119.168 535.418 120.16C535.978 121.152 536.258 122.32 536.258 123.664C536.258 123.792 536.25 123.936 536.234 124.096C536.234 124.256 536.226 124.408 536.21 124.552H525.53V122.56H534.626L533.45 123.184C533.466 122.448 533.314 121.8 532.994 121.24C532.674 120.68 532.234 120.24 531.674 119.92C531.13 119.6 530.498 119.44 529.778 119.44C529.042 119.44 528.394 119.6 527.834 119.92C527.29 120.24 526.858 120.688 526.538 121.264C526.234 121.824 526.082 122.488 526.082 123.256V123.736C526.082 124.504 526.258 125.184 526.61 125.776C526.962 126.368 527.458 126.824 528.098 127.144C528.738 127.464 529.474 127.624 530.306 127.624C531.026 127.624 531.674 127.512 532.25 127.288C532.826 127.064 533.338 126.712 533.786 126.232L535.394 128.08C534.818 128.752 534.09 129.272 533.21 129.64C532.346 129.992 531.354 130.168 530.234 130.168ZM545.02 130.168C543.676 130.168 542.476 129.888 541.42 129.328C540.38 128.752 539.564 127.968 538.972 126.976C538.38 125.984 538.084 124.856 538.084 123.592C538.084 122.312 538.38 121.184 538.972 120.208C539.564 119.216 540.38 118.44 541.42 117.88C542.476 117.32 543.676 117.04 545.02 117.04C546.268 117.04 547.364 117.296 548.308 117.808C549.268 118.304 549.996 119.04 550.492 120.016L548.188 121.36C547.804 120.752 547.332 120.304 546.772 120.016C546.228 119.728 545.636 119.584 544.996 119.584C544.26 119.584 543.596 119.744 543.004 120.064C542.412 120.384 541.948 120.848 541.612 121.456C541.276 122.048 541.108 122.76 541.108 123.592C541.108 124.424 541.276 125.144 541.612 125.752C541.948 126.344 542.412 126.8 543.004 127.12C543.596 127.44 544.26 127.6 544.996 127.6C545.636 127.6 546.228 127.456 546.772 127.168C547.332 126.88 547.804 126.432 548.188 125.824L550.492 127.168C549.996 128.128 549.268 128.872 548.308 129.4C547.364 129.912 546.268 130.168 545.02 130.168ZM558.073 130.168C556.665 130.168 555.577 129.808 554.809 129.088C554.041 128.352 553.657 127.272 553.657 125.848V114.352H556.657V125.776C556.657 126.384 556.809 126.856 557.113 127.192C557.433 127.528 557.873 127.696 558.433 127.696C559.105 127.696 559.665 127.52 560.113 127.168L560.953 129.304C560.601 129.592 560.169 129.808 559.657 129.952C559.145 130.096 558.617 130.168 558.073 130.168ZM551.545 119.68V117.28H560.089V119.68H551.545ZM567.381 130.168C566.309 130.168 565.277 130.032 564.285 129.76C563.309 129.472 562.533 129.128 561.957 128.728L563.109 126.448C563.685 126.816 564.373 127.12 565.173 127.36C565.973 127.6 566.773 127.72 567.573 127.72C568.517 127.72 569.197 127.592 569.613 127.336C570.045 127.08 570.261 126.736 570.261 126.304C570.261 125.952 570.117 125.688 569.829 125.512C569.541 125.32 569.165 125.176 568.701 125.08C568.237 124.984 567.717 124.896 567.141 124.816C566.581 124.736 566.013 124.632 565.437 124.504C564.877 124.36 564.365 124.16 563.901 123.904C563.437 123.632 563.061 123.272 562.773 122.824C562.485 122.376 562.341 121.784 562.341 121.048C562.341 120.232 562.573 119.528 563.037 118.936C563.501 118.328 564.149 117.864 564.981 117.544C565.829 117.208 566.829 117.04 567.981 117.04C568.845 117.04 569.717 117.136 570.597 117.328C571.477 117.52 572.205 117.792 572.781 118.144L571.629 120.424C571.021 120.056 570.405 119.808 569.781 119.68C569.173 119.536 568.565 119.464 567.957 119.464C567.045 119.464 566.365 119.6 565.917 119.872C565.485 120.144 565.269 120.488 565.269 120.904C565.269 121.288 565.413 121.576 565.701 121.768C565.989 121.96 566.365 122.112 566.829 122.224C567.293 122.336 567.805 122.432 568.365 122.512C568.941 122.576 569.509 122.68 570.069 122.824C570.629 122.968 571.141 123.168 571.605 123.424C572.085 123.664 572.469 124.008 572.757 124.456C573.045 124.904 573.189 125.488 573.189 126.208C573.189 127.008 572.949 127.704 572.469 128.296C572.005 128.888 571.341 129.352 570.477 129.688C569.613 130.008 568.581 130.168 567.381 130.168ZM157.538 159.168C156.13 159.168 155.042 158.808 154.274 158.088C153.506 157.352 153.122 156.272 153.122 154.848V143.352H156.122V154.776C156.122 155.384 156.274 155.856 156.578 156.192C156.898 156.528 157.338 156.696 157.898 156.696C158.57 156.696 159.13 156.52 159.578 156.168L160.418 158.304C160.066 158.592 159.634 158.808 159.122 158.952C158.61 159.096 158.082 159.168 157.538 159.168ZM151.01 148.68V146.28H159.554V148.68H151.01ZM168.224 159.168C166.912 159.168 165.744 158.888 164.72 158.328C163.696 157.752 162.888 156.968 162.296 155.976C161.704 154.984 161.408 153.856 161.408 152.592C161.408 151.312 161.704 150.184 162.296 149.208C162.888 148.216 163.696 147.44 164.72 146.88C165.744 146.32 166.912 146.04 168.224 146.04C169.552 146.04 170.728 146.32 171.752 146.88C172.792 147.44 173.6 148.208 174.176 149.184C174.768 150.16 175.064 151.296 175.064 152.592C175.064 153.856 174.768 154.984 174.176 155.976C173.6 156.968 172.792 157.752 171.752 158.328C170.728 158.888 169.552 159.168 168.224 159.168ZM168.224 156.6C168.96 156.6 169.616 156.44 170.192 156.12C170.768 155.8 171.216 155.336 171.536 154.728C171.872 154.12 172.04 153.408 172.04 152.592C172.04 151.76 171.872 151.048 171.536 150.456C171.216 149.848 170.768 149.384 170.192 149.064C169.616 148.744 168.968 148.584 168.248 148.584C167.512 148.584 166.856 148.744 166.28 149.064C165.72 149.384 165.272 149.848 164.936 150.456C164.6 151.048 164.432 151.76 164.432 152.592C164.432 153.408 164.6 154.12 164.936 154.728C165.272 155.336 165.72 155.8 166.28 156.12C166.856 156.44 167.504 156.6 168.224 156.6ZM189.39 159.168C187.982 159.168 186.894 158.808 186.126 158.088C185.358 157.352 184.974 156.272 184.974 154.848V143.352H187.974V154.776C187.974 155.384 188.126 155.856 188.43 156.192C188.75 156.528 189.19 156.696 189.75 156.696C190.422 156.696 190.982 156.52 191.43 156.168L192.27 158.304C191.918 158.592 191.486 158.808 190.974 158.952C190.462 159.096 189.934 159.168 189.39 159.168ZM182.862 148.68V146.28H191.406V148.68H182.862ZM202.01 146.04C203.034 146.04 203.946 146.24 204.746 146.64C205.562 147.04 206.202 147.656 206.666 148.488C207.13 149.304 207.362 150.36 207.362 151.656V159H204.362V152.04C204.362 150.904 204.09 150.056 203.546 149.496C203.018 148.936 202.274 148.656 201.314 148.656C200.61 148.656 199.986 148.8 199.442 149.088C198.898 149.376 198.474 149.808 198.17 150.384C197.882 150.944 197.738 151.656 197.738 152.52V159H194.738V141.192H197.738V149.64L197.09 148.584C197.538 147.768 198.186 147.144 199.034 146.712C199.898 146.264 200.89 146.04 202.01 146.04ZM217.215 159.168C215.791 159.168 214.543 158.888 213.471 158.328C212.415 157.752 211.591 156.968 210.999 155.976C210.423 154.984 210.135 153.856 210.135 152.592C210.135 151.312 210.415 150.184 210.975 149.208C211.551 148.216 212.335 147.44 213.327 146.88C214.335 146.32 215.479 146.04 216.759 146.04C218.007 146.04 219.119 146.312 220.095 146.856C221.071 147.4 221.839 148.168 222.399 149.16C222.959 150.152 223.239 151.32 223.239 152.664C223.239 152.792 223.231 152.936 223.215 153.096C223.215 153.256 223.207 153.408 223.191 153.552H212.511V151.56H221.607L220.431 152.184C220.447 151.448 220.295 150.8 219.975 150.24C219.655 149.68 219.215 149.24 218.655 148.92C218.111 148.6 217.479 148.44 216.759 148.44C216.023 148.44 215.375 148.6 214.815 148.92C214.271 149.24 213.839 149.688 213.519 150.264C213.215 150.824 213.063 151.488 213.063 152.256V152.736C213.063 153.504 213.239 154.184 213.591 154.776C213.943 155.368 214.439 155.824 215.079 156.144C215.719 156.464 216.455 156.624 217.287 156.624C218.007 156.624 218.655 156.512 219.231 156.288C219.807 156.064 220.319 155.712 220.767 155.232L222.375 157.08C221.799 157.752 221.071 158.272 220.191 158.64C219.327 158.992 218.335 159.168 217.215 159.168ZM238.633 159.168C237.289 159.168 236.089 158.888 235.033 158.328C233.993 157.752 233.177 156.968 232.585 155.976C231.993 154.984 231.697 153.856 231.697 152.592C231.697 151.312 231.993 150.184 232.585 149.208C233.177 148.216 233.993 147.44 235.033 146.88C236.089 146.32 237.289 146.04 238.633 146.04C239.881 146.04 240.977 146.296 241.921 146.808C242.881 147.304 243.609 148.04 244.105 149.016L241.801 150.36C241.417 149.752 240.945 149.304 240.385 149.016C239.841 148.728 239.249 148.584 238.609 148.584C237.873 148.584 237.209 148.744 236.617 149.064C236.025 149.384 235.561 149.848 235.225 150.456C234.889 151.048 234.721 151.76 234.721 152.592C234.721 153.424 234.889 154.144 235.225 154.752C235.561 155.344 236.025 155.8 236.617 156.12C237.209 156.44 237.873 156.6 238.609 156.6C239.249 156.6 239.841 156.456 240.385 156.168C240.945 155.88 241.417 155.432 241.801 154.824L244.105 156.168C243.609 157.128 242.881 157.872 241.921 158.4C240.977 158.912 239.881 159.168 238.633 159.168ZM252.122 159.168C251.034 159.168 250.074 158.968 249.242 158.568C248.41 158.152 247.762 157.528 247.298 156.696C246.834 155.848 246.602 154.784 246.602 153.504V146.184H249.602V153.096C249.602 154.248 249.858 155.112 250.37 155.688C250.898 156.248 251.642 156.528 252.602 156.528C253.306 156.528 253.914 156.384 254.426 156.096C254.954 155.808 255.362 155.376 255.65 154.8C255.954 154.224 256.106 153.512 256.106 152.664V146.184H259.106V159H256.25V155.544L256.754 156.6C256.322 157.432 255.69 158.072 254.858 158.52C254.026 158.952 253.114 159.168 252.122 159.168ZM267.858 159.168C266.45 159.168 265.362 158.808 264.594 158.088C263.826 157.352 263.442 156.272 263.442 154.848V143.352H266.442V154.776C266.442 155.384 266.594 155.856 266.898 156.192C267.218 156.528 267.658 156.696 268.218 156.696C268.89 156.696 269.45 156.52 269.898 156.168L270.738 158.304C270.386 158.592 269.954 158.808 269.442 158.952C268.93 159.096 268.402 159.168 267.858 159.168ZM261.33 148.68V146.28H269.874V148.68H261.33ZM277.726 159.168C276.318 159.168 275.23 158.808 274.462 158.088C273.694 157.352 273.31 156.272 273.31 154.848V143.352H276.31V154.776C276.31 155.384 276.462 155.856 276.766 156.192C277.086 156.528 277.526 156.696 278.086 156.696C278.758 156.696 279.318 156.52 279.766 156.168L280.606 158.304C280.254 158.592 279.822 158.808 279.31 158.952C278.798 159.096 278.27 159.168 277.726 159.168ZM271.198 148.68V146.28H279.742V148.68H271.198ZM283.073 159V146.184H286.073V159H283.073ZM284.585 144.072C284.025 144.072 283.561 143.896 283.193 143.544C282.841 143.192 282.665 142.768 282.665 142.272C282.665 141.76 282.841 141.336 283.193 141C283.561 140.648 284.025 140.472 284.585 140.472C285.145 140.472 285.601 140.64 285.953 140.976C286.321 141.296 286.505 141.704 286.505 142.2C286.505 142.728 286.329 143.176 285.977 143.544C285.625 143.896 285.161 144.072 284.585 144.072ZM297.283 146.04C298.307 146.04 299.219 146.24 300.019 146.64C300.835 147.04 301.475 147.656 301.939 148.488C302.403 149.304 302.635 150.36 302.635 151.656V159H299.635V152.04C299.635 150.904 299.363 150.056 298.819 149.496C298.291 148.936 297.547 148.656 296.587 148.656C295.883 148.656 295.259 148.8 294.715 149.088C294.171 149.376 293.747 149.808 293.443 150.384C293.155 150.944 293.011 151.656 293.011 152.52V159H290.011V146.184H292.867V149.64L292.363 148.584C292.811 147.768 293.459 147.144 294.307 146.712C295.171 146.264 296.163 146.04 297.283 146.04ZM312.272 163.824C311.088 163.824 309.928 163.664 308.792 163.344C307.672 163.04 306.752 162.592 306.032 162L307.376 159.744C307.936 160.208 308.64 160.576 309.488 160.848C310.352 161.136 311.224 161.28 312.104 161.28C313.512 161.28 314.544 160.952 315.2 160.296C315.856 159.656 316.184 158.688 316.184 157.392V155.112L316.424 152.208L316.328 149.304V146.184H319.184V157.056C319.184 159.376 318.592 161.08 317.408 162.168C316.224 163.272 314.512 163.824 312.272 163.824ZM311.888 158.424C310.672 158.424 309.568 158.168 308.576 157.656C307.6 157.128 306.824 156.4 306.248 155.472C305.688 154.544 305.408 153.456 305.408 152.208C305.408 150.976 305.688 149.896 306.248 148.968C306.824 148.04 307.6 147.32 308.576 146.808C309.568 146.296 310.672 146.04 311.888 146.04C312.976 146.04 313.952 146.256 314.816 146.688C315.68 147.12 316.368 147.792 316.88 148.704C317.408 149.616 317.672 150.784 317.672 152.208C317.672 153.632 317.408 154.808 316.88 155.736C316.368 156.648 315.68 157.328 314.816 157.776C313.952 158.208 312.976 158.424 311.888 158.424ZM312.344 155.88C313.096 155.88 313.768 155.728 314.36 155.424C314.952 155.104 315.408 154.672 315.728 154.128C316.064 153.568 316.232 152.928 316.232 152.208C316.232 151.488 316.064 150.856 315.728 150.312C315.408 149.752 314.952 149.328 314.36 149.04C313.768 148.736 313.096 148.584 312.344 148.584C311.592 148.584 310.912 148.736 310.304 149.04C309.712 149.328 309.248 149.752 308.912 150.312C308.592 150.856 308.432 151.488 308.432 152.208C308.432 152.928 308.592 153.568 308.912 154.128C309.248 154.672 309.712 155.104 310.304 155.424C310.912 155.728 311.592 155.88 312.344 155.88ZM335.785 159.168C334.361 159.168 333.113 158.888 332.041 158.328C330.985 157.752 330.161 156.968 329.569 155.976C328.993 154.984 328.705 153.856 328.705 152.592C328.705 151.312 328.985 150.184 329.545 149.208C330.121 148.216 330.905 147.44 331.897 146.88C332.905 146.32 334.049 146.04 335.329 146.04C336.577 146.04 337.689 146.312 338.665 146.856C339.641 147.4 340.409 148.168 340.969 149.16C341.529 150.152 341.809 151.32 341.809 152.664C341.809 152.792 341.801 152.936 341.785 153.096C341.785 153.256 341.777 153.408 341.761 153.552H331.081V151.56H340.177L339.001 152.184C339.017 151.448 338.865 150.8 338.545 150.24C338.225 149.68 337.785 149.24 337.225 148.92C336.681 148.6 336.049 148.44 335.329 148.44C334.593 148.44 333.945 148.6 333.385 148.92C332.841 149.24 332.409 149.688 332.089 150.264C331.785 150.824 331.633 151.488 331.633 152.256V152.736C331.633 153.504 331.809 154.184 332.161 154.776C332.513 155.368 333.009 155.824 333.649 156.144C334.289 156.464 335.025 156.624 335.857 156.624C336.577 156.624 337.225 156.512 337.801 156.288C338.377 156.064 338.889 155.712 339.337 155.232L340.945 157.08C340.369 157.752 339.641 158.272 338.761 158.64C337.897 158.992 336.905 159.168 335.785 159.168ZM350.115 159.168C348.883 159.168 347.771 158.896 346.779 158.352C345.803 157.792 345.035 157.024 344.475 156.048C343.915 155.072 343.635 153.92 343.635 152.592C343.635 151.264 343.915 150.112 344.475 149.136C345.035 148.16 345.803 147.4 346.779 146.856C347.771 146.312 348.883 146.04 350.115 146.04C351.187 146.04 352.147 146.28 352.995 146.76C353.843 147.224 354.515 147.936 355.011 148.896C355.507 149.856 355.755 151.088 355.755 152.592C355.755 154.08 355.515 155.312 355.035 156.288C354.555 157.248 353.891 157.968 353.043 158.448C352.195 158.928 351.219 159.168 350.115 159.168ZM350.475 156.6C351.195 156.6 351.835 156.44 352.395 156.12C352.971 155.8 353.427 155.336 353.763 154.728C354.115 154.12 354.291 153.408 354.291 152.592C354.291 151.76 354.115 151.048 353.763 150.456C353.427 149.848 352.971 149.384 352.395 149.064C351.835 148.744 351.195 148.584 350.475 148.584C349.755 148.584 349.107 148.744 348.531 149.064C347.971 149.384 347.515 149.848 347.163 150.456C346.827 151.048 346.659 151.76 346.659 152.592C346.659 153.408 346.827 154.12 347.163 154.728C347.515 155.336 347.971 155.8 348.531 156.12C349.107 156.44 349.755 156.6 350.475 156.6ZM354.363 159V155.976L354.483 152.568L354.243 149.16V141.192H357.219V159H354.363ZM366.975 163.824C365.791 163.824 364.631 163.664 363.495 163.344C362.375 163.04 361.455 162.592 360.735 162L362.079 159.744C362.639 160.208 363.343 160.576 364.191 160.848C365.055 161.136 365.927 161.28 366.807 161.28C368.215 161.28 369.247 160.952 369.903 160.296C370.559 159.656 370.887 158.688 370.887 157.392V155.112L371.127 152.208L371.031 149.304V146.184H373.887V157.056C373.887 159.376 373.295 161.08 372.111 162.168C370.927 163.272 369.215 163.824 366.975 163.824ZM366.591 158.424C365.375 158.424 364.271 158.168 363.279 157.656C362.303 157.128 361.527 156.4 360.951 155.472C360.391 154.544 360.111 153.456 360.111 152.208C360.111 150.976 360.391 149.896 360.951 148.968C361.527 148.04 362.303 147.32 363.279 146.808C364.271 146.296 365.375 146.04 366.591 146.04C367.679 146.04 368.655 146.256 369.519 146.688C370.383 147.12 371.071 147.792 371.583 148.704C372.111 149.616 372.375 150.784 372.375 152.208C372.375 153.632 372.111 154.808 371.583 155.736C371.071 156.648 370.383 157.328 369.519 157.776C368.655 158.208 367.679 158.424 366.591 158.424ZM367.047 155.88C367.799 155.88 368.471 155.728 369.063 155.424C369.655 155.104 370.111 154.672 370.431 154.128C370.767 153.568 370.935 152.928 370.935 152.208C370.935 151.488 370.767 150.856 370.431 150.312C370.111 149.752 369.655 149.328 369.063 149.04C368.471 148.736 367.799 148.584 367.047 148.584C366.295 148.584 365.615 148.736 365.007 149.04C364.415 149.328 363.951 149.752 363.615 150.312C363.295 150.856 363.135 151.488 363.135 152.208C363.135 152.928 363.295 153.568 363.615 154.128C363.951 154.672 364.415 155.104 365.007 155.424C365.615 155.728 366.295 155.88 367.047 155.88ZM383.855 159.168C382.431 159.168 381.183 158.888 380.111 158.328C379.055 157.752 378.231 156.968 377.639 155.976C377.063 154.984 376.775 153.856 376.775 152.592C376.775 151.312 377.055 150.184 377.615 149.208C378.191 148.216 378.975 147.44 379.967 146.88C380.975 146.32 382.119 146.04 383.399 146.04C384.647 146.04 385.759 146.312 386.735 146.856C387.711 147.4 388.479 148.168 389.039 149.16C389.599 150.152 389.879 151.32 389.879 152.664C389.879 152.792 389.871 152.936 389.855 153.096C389.855 153.256 389.847 153.408 389.831 153.552H379.151V151.56H388.247L387.071 152.184C387.087 151.448 386.935 150.8 386.615 150.24C386.295 149.68 385.855 149.24 385.295 148.92C384.751 148.6 384.119 148.44 383.399 148.44C382.663 148.44 382.015 148.6 381.455 148.92C380.911 149.24 380.479 149.688 380.159 150.264C379.855 150.824 379.703 151.488 379.703 152.256V152.736C379.703 153.504 379.879 154.184 380.231 154.776C380.583 155.368 381.079 155.824 381.719 156.144C382.359 156.464 383.095 156.624 383.927 156.624C384.647 156.624 385.295 156.512 385.871 156.288C386.447 156.064 386.959 155.712 387.407 155.232L389.015 157.08C388.439 157.752 387.711 158.272 386.831 158.64C385.967 158.992 384.975 159.168 383.855 159.168ZM405.154 159.168C403.842 159.168 402.674 158.888 401.65 158.328C400.626 157.752 399.818 156.968 399.226 155.976C398.634 154.984 398.338 153.856 398.338 152.592C398.338 151.312 398.634 150.184 399.226 149.208C399.818 148.216 400.626 147.44 401.65 146.88C402.674 146.32 403.842 146.04 405.154 146.04C406.482 146.04 407.658 146.32 408.682 146.88C409.722 147.44 410.53 148.208 411.106 149.184C411.698 150.16 411.994 151.296 411.994 152.592C411.994 153.856 411.698 154.984 411.106 155.976C410.53 156.968 409.722 157.752 408.682 158.328C407.658 158.888 406.482 159.168 405.154 159.168ZM405.154 156.6C405.89 156.6 406.546 156.44 407.122 156.12C407.698 155.8 408.146 155.336 408.466 154.728C408.802 154.12 408.97 153.408 408.97 152.592C408.97 151.76 408.802 151.048 408.466 150.456C408.146 149.848 407.698 149.384 407.122 149.064C406.546 148.744 405.898 148.584 405.178 148.584C404.442 148.584 403.786 148.744 403.21 149.064C402.65 149.384 402.202 149.848 401.866 150.456C401.53 151.048 401.362 151.76 401.362 152.592C401.362 153.408 401.53 154.12 401.866 154.728C402.202 155.336 402.65 155.8 403.21 156.12C403.786 156.44 404.434 156.6 405.154 156.6ZM415.271 159V145.464C415.271 144.12 415.663 143.048 416.447 142.248C417.247 141.432 418.383 141.024 419.855 141.024C420.383 141.024 420.879 141.08 421.343 141.192C421.823 141.304 422.223 141.48 422.543 141.72L421.727 143.976C421.503 143.8 421.247 143.672 420.959 143.592C420.671 143.496 420.375 143.448 420.071 143.448C419.447 143.448 418.975 143.624 418.655 143.976C418.335 144.312 418.175 144.824 418.175 145.512V146.952L418.271 148.296V159H415.271ZM413.159 148.68V146.28H421.703V148.68H413.159ZM435.179 159.168C433.771 159.168 432.683 158.808 431.915 158.088C431.147 157.352 430.763 156.272 430.763 154.848V143.352H433.763V154.776C433.763 155.384 433.915 155.856 434.219 156.192C434.539 156.528 434.979 156.696 435.539 156.696C436.211 156.696 436.771 156.52 437.219 156.168L438.059 158.304C437.707 158.592 437.275 158.808 436.763 158.952C436.251 159.096 435.723 159.168 435.179 159.168ZM428.651 148.68V146.28H437.195V148.68H428.651ZM446.129 159.168C444.705 159.168 443.457 158.888 442.385 158.328C441.329 157.752 440.505 156.968 439.913 155.976C439.337 154.984 439.049 153.856 439.049 152.592C439.049 151.312 439.329 150.184 439.889 149.208C440.465 148.216 441.249 147.44 442.241 146.88C443.249 146.32 444.393 146.04 445.673 146.04C446.921 146.04 448.033 146.312 449.009 146.856C449.985 147.4 450.753 148.168 451.313 149.16C451.873 150.152 452.153 151.32 452.153 152.664C452.153 152.792 452.145 152.936 452.129 153.096C452.129 153.256 452.121 153.408 452.105 153.552H441.425V151.56H450.521L449.345 152.184C449.361 151.448 449.209 150.8 448.889 150.24C448.569 149.68 448.129 149.24 447.569 148.92C447.025 148.6 446.393 148.44 445.673 148.44C444.937 148.44 444.289 148.6 443.729 148.92C443.185 149.24 442.753 149.688 442.433 150.264C442.129 150.824 441.977 151.488 441.977 152.256V152.736C441.977 153.504 442.153 154.184 442.505 154.776C442.857 155.368 443.353 155.824 443.993 156.144C444.633 156.464 445.369 156.624 446.201 156.624C446.921 156.624 447.569 156.512 448.145 156.288C448.721 156.064 449.233 155.712 449.681 155.232L451.289 157.08C450.713 157.752 449.985 158.272 449.105 158.64C448.241 158.992 447.249 159.168 446.129 159.168ZM460.914 159.168C459.57 159.168 458.37 158.888 457.314 158.328C456.274 157.752 455.458 156.968 454.866 155.976C454.274 154.984 453.978 153.856 453.978 152.592C453.978 151.312 454.274 150.184 454.866 149.208C455.458 148.216 456.274 147.44 457.314 146.88C458.37 146.32 459.57 146.04 460.914 146.04C462.162 146.04 463.258 146.296 464.202 146.808C465.162 147.304 465.89 148.04 466.386 149.016L464.082 150.36C463.698 149.752 463.226 149.304 462.666 149.016C462.122 148.728 461.53 148.584 460.89 148.584C460.154 148.584 459.49 148.744 458.898 149.064C458.306 149.384 457.842 149.848 457.506 150.456C457.17 151.048 457.002 151.76 457.002 152.592C457.002 153.424 457.17 154.144 457.506 154.752C457.842 155.344 458.306 155.8 458.898 156.12C459.49 156.44 460.154 156.6 460.89 156.6C461.53 156.6 462.122 156.456 462.666 156.168C463.226 155.88 463.698 155.432 464.082 154.824L466.386 156.168C465.89 157.128 465.162 157.872 464.202 158.4C463.258 158.912 462.162 159.168 460.914 159.168ZM476.135 146.04C477.159 146.04 478.071 146.24 478.871 146.64C479.687 147.04 480.327 147.656 480.791 148.488C481.255 149.304 481.487 150.36 481.487 151.656V159H478.487V152.04C478.487 150.904 478.215 150.056 477.671 149.496C477.143 148.936 476.399 148.656 475.439 148.656C474.735 148.656 474.111 148.8 473.567 149.088C473.023 149.376 472.599 149.808 472.295 150.384C472.007 150.944 471.863 151.656 471.863 152.52V159H468.863V141.192H471.863V149.64L471.215 148.584C471.663 147.768 472.311 147.144 473.159 146.712C474.023 146.264 475.015 146.04 476.135 146.04ZM492.564 146.04C493.588 146.04 494.5 146.24 495.3 146.64C496.116 147.04 496.756 147.656 497.22 148.488C497.684 149.304 497.916 150.36 497.916 151.656V159H494.916V152.04C494.916 150.904 494.644 150.056 494.1 149.496C493.572 148.936 492.828 148.656 491.868 148.656C491.164 148.656 490.54 148.8 489.996 149.088C489.452 149.376 489.028 149.808 488.724 150.384C488.436 150.944 488.292 151.656 488.292 152.52V159H485.292V146.184H488.148V149.64L487.644 148.584C488.092 147.768 488.74 147.144 489.588 146.712C490.452 146.264 491.444 146.04 492.564 146.04ZM507.505 159.168C506.193 159.168 505.025 158.888 504.001 158.328C502.977 157.752 502.169 156.968 501.577 155.976C500.985 154.984 500.689 153.856 500.689 152.592C500.689 151.312 500.985 150.184 501.577 149.208C502.169 148.216 502.977 147.44 504.001 146.88C505.025 146.32 506.193 146.04 507.505 146.04C508.833 146.04 510.009 146.32 511.033 146.88C512.073 147.44 512.881 148.208 513.457 149.184C514.049 150.16 514.345 151.296 514.345 152.592C514.345 153.856 514.049 154.984 513.457 155.976C512.881 156.968 512.073 157.752 511.033 158.328C510.009 158.888 508.833 159.168 507.505 159.168ZM507.505 156.6C508.241 156.6 508.897 156.44 509.473 156.12C510.049 155.8 510.497 155.336 510.817 154.728C511.153 154.12 511.321 153.408 511.321 152.592C511.321 151.76 511.153 151.048 510.817 150.456C510.497 149.848 510.049 149.384 509.473 149.064C508.897 148.744 508.249 148.584 507.529 148.584C506.793 148.584 506.137 148.744 505.561 149.064C505.001 149.384 504.553 149.848 504.217 150.456C503.881 151.048 503.713 151.76 503.713 152.592C503.713 153.408 503.881 154.12 504.217 154.728C504.553 155.336 505.001 155.8 505.561 156.12C506.137 156.44 506.785 156.6 507.505 156.6ZM517.214 159V141.192H520.214V159H517.214ZM529.912 159.168C528.6 159.168 527.432 158.888 526.408 158.328C525.384 157.752 524.576 156.968 523.984 155.976C523.392 154.984 523.096 153.856 523.096 152.592C523.096 151.312 523.392 150.184 523.984 149.208C524.576 148.216 525.384 147.44 526.408 146.88C527.432 146.32 528.6 146.04 529.912 146.04C531.24 146.04 532.416 146.32 533.44 146.88C534.48 147.44 535.288 148.208 535.864 149.184C536.456 150.16 536.752 151.296 536.752 152.592C536.752 153.856 536.456 154.984 535.864 155.976C535.288 156.968 534.48 157.752 533.44 158.328C532.416 158.888 531.24 159.168 529.912 159.168ZM529.912 156.6C530.648 156.6 531.304 156.44 531.88 156.12C532.456 155.8 532.904 155.336 533.224 154.728C533.56 154.12 533.728 153.408 533.728 152.592C533.728 151.76 533.56 151.048 533.224 150.456C532.904 149.848 532.456 149.384 531.88 149.064C531.304 148.744 530.656 148.584 529.936 148.584C529.2 148.584 528.544 148.744 527.968 149.064C527.408 149.384 526.96 149.848 526.624 150.456C526.288 151.048 526.12 151.76 526.12 152.592C526.12 153.408 526.288 154.12 526.624 154.728C526.96 155.336 527.408 155.8 527.968 156.12C528.544 156.44 529.192 156.6 529.912 156.6ZM545.428 163.824C544.244 163.824 543.084 163.664 541.948 163.344C540.828 163.04 539.908 162.592 539.188 162L540.532 159.744C541.092 160.208 541.796 160.576 542.644 160.848C543.508 161.136 544.38 161.28 545.26 161.28C546.668 161.28 547.7 160.952 548.356 160.296C549.012 159.656 549.34 158.688 549.34 157.392V155.112L549.58 152.208L549.484 149.304V146.184H552.34V157.056C552.34 159.376 551.748 161.08 550.564 162.168C549.38 163.272 547.668 163.824 545.428 163.824ZM545.044 158.424C543.828 158.424 542.724 158.168 541.732 157.656C540.756 157.128 539.98 156.4 539.404 155.472C538.844 154.544 538.564 153.456 538.564 152.208C538.564 150.976 538.844 149.896 539.404 148.968C539.98 148.04 540.756 147.32 541.732 146.808C542.724 146.296 543.828 146.04 545.044 146.04C546.132 146.04 547.108 146.256 547.972 146.688C548.836 147.12 549.524 147.792 550.036 148.704C550.564 149.616 550.828 150.784 550.828 152.208C550.828 153.632 550.564 154.808 550.036 155.736C549.524 156.648 548.836 157.328 547.972 157.776C547.108 158.208 546.132 158.424 545.044 158.424ZM545.5 155.88C546.252 155.88 546.924 155.728 547.516 155.424C548.108 155.104 548.564 154.672 548.884 154.128C549.22 153.568 549.388 152.928 549.388 152.208C549.388 151.488 549.22 150.856 548.884 150.312C548.564 149.752 548.108 149.328 547.516 149.04C546.924 148.736 546.252 148.584 545.5 148.584C544.748 148.584 544.068 148.736 543.46 149.04C542.868 149.328 542.404 149.752 542.068 150.312C541.748 150.856 541.588 151.488 541.588 152.208C541.588 152.928 541.748 153.568 542.068 154.128C542.404 154.672 542.868 155.104 543.46 155.424C544.068 155.728 544.748 155.88 545.5 155.88ZM557.34 163.824C556.716 163.824 556.092 163.72 555.468 163.512C554.844 163.304 554.324 163.016 553.908 162.648L555.108 160.44C555.412 160.712 555.756 160.928 556.14 161.088C556.524 161.248 556.916 161.328 557.316 161.328C557.86 161.328 558.3 161.192 558.636 160.92C558.972 160.648 559.284 160.192 559.572 159.552L560.316 157.872L560.556 157.512L565.404 146.184H568.284L562.284 160.032C561.884 160.992 561.436 161.752 560.94 162.312C560.46 162.872 559.916 163.264 559.308 163.488C558.716 163.712 558.06 163.824 557.34 163.824ZM559.98 159.456L554.196 146.184H557.316L562.02 157.248L559.98 159.456ZM570.323 159.168C569.779 159.168 569.315 158.984 568.931 158.616C568.547 158.232 568.355 157.752 568.355 157.176C568.355 156.568 568.547 156.088 568.931 155.736C569.315 155.368 569.779 155.184 570.323 155.184C570.867 155.184 571.331 155.368 571.715 155.736C572.099 156.088 572.291 156.568 572.291 157.176C572.291 157.752 572.099 158.232 571.715 158.616C571.331 158.984 570.867 159.168 570.323 159.168Z" fill="#F5F5F5"/>
<defs>
<filter id="filter0_d_420_931" x="0" y="0" width="724" height="222" filterUnits="userSpaceOnUse" color-interpolation-filters="sRGB">
<feFlood flood-opacity="0" result="BackgroundImageFix"/>
<feColorMatrix in="SourceAlpha" type="matrix" values="0 0 0 0 0 0 0 0 0 0 0 0 0 0 0 0 0 0 127 0" result="hardAlpha"/>
<feOffset dy="4"/>
<feGaussianBlur stdDeviation="2"/>
<feComposite in2="hardAlpha" operator="out"/>
<feColorMatrix type="matrix" values="0 0 0 0 0 0 0 0 0 0 0 0 0 0 0 0 0 0 0.25 0"/>
<feBlend mode="normal" in2="BackgroundImageFix" result="effect1_dropShadow_420_931"/>
<feBlend mode="normal" in="SourceGraphic" in2="effect1_dropShadow_420_931" result="shape"/>
</filter>
</defs>
</svg>
