<svg width="24" height="24" viewBox="0 0 24 24" fill="none" xmlns="http://www.w3.org/2000/svg">
<path d="M17.4981 14.382C17.1997 14.233 15.7317 13.515 15.4584 13.415C15.1841 13.316 14.9851 13.267 14.7852 13.565C14.5873 13.862 14.0145 14.531 13.8407 14.729C13.6669 14.928 13.4921 14.952 13.1936 14.804C12.8952 14.654 11.9327 14.341 10.7922 13.329C9.90503 12.541 9.30518 11.568 9.13135 11.27C8.95753 10.973 9.11327 10.812 9.26197 10.664C9.39661 10.531 9.56139 10.317 9.7101 10.144C9.85981 9.97002 9.90904 9.84602 10.0095 9.64703C10.109 9.44903 10.0598 9.27603 9.9844 9.12703C9.90905 8.97803 9.31221 7.51503 9.06403 6.92003C8.82088 6.34103 8.57471 6.42003 8.39184 6.41003C8.20103 6.40247 8.01008 6.39913 7.81912 6.40003C7.62018 6.40003 7.29664 6.47403 7.02334 6.77203C6.75005 7.06903 5.97838 7.78803 5.97838 9.25103C5.97838 10.713 7.04846 12.126 7.19717 12.325C7.34688 12.523 9.30317 15.525 12.2984 16.812C13.0108 17.118 13.5664 17.301 14.0005 17.437C14.7159 17.664 15.367 17.632 15.8804 17.555C16.4541 17.47 17.6468 16.836 17.896 16.142C18.1451 15.448 18.1451 14.853 18.0698 14.729C17.9954 14.605 17.7975 14.531 17.4981 14.382ZM12.0502 21.785H12.0462C10.2675 21.7851 8.52154 21.3092 6.99119 20.407L6.62847 20.193L2.86962 21.175L3.87238 17.527L3.63626 17.153C2.64198 15.5773 2.11599 13.7537 2.11906 11.893C2.12007 6.44303 6.57622 2.00904 12.0542 2.00904C14.7068 2.00904 17.2007 3.03904 19.0756 4.90703C20.0006 5.82365 20.7339 6.91376 21.2328 8.11427C21.7318 9.31478 21.9865 10.6019 21.9824 11.901C21.9794 17.351 17.5242 21.785 12.0502 21.785ZM20.5033 3.48804C19.3963 2.37896 18.0791 1.49958 16.628 0.90084C15.177 0.302104 13.621 -0.00407624 12.0502 4.09775e-05C5.46394 4.09775e-05 0.103491 5.33503 0.100477 11.892C0.100477 13.988 0.650086 16.034 1.69605 17.837L0 24L6.33508 22.346C8.08699 23.2959 10.0502 23.7938 12.0452 23.794H12.0502C18.6355 23.794 23.9969 18.459 23.9999 11.901C24.0048 10.3383 23.6983 8.79013 23.0981 7.34606C22.4979 5.902 21.616 4.5907 20.5033 3.48804Z" fill="#F5F5F5"/>
</svg>
