<svg width="71" height="71" viewBox="0 0 71 71" fill="none" xmlns="http://www.w3.org/2000/svg">
<mask id="mask0_131_72" style="mask-type:alpha" maskUnits="userSpaceOnUse" x="0" y="0" width="71" height="71">
<rect width="70.1616" height="70.1616" fill="#D9D9D9"/>
</mask>
<g mask="url(#mask0_131_72)">
<path d="M15.1678 32.7925L22.33 35.8227C23.2371 34.0087 24.2247 32.2528 25.2928 30.555C26.361 28.8572 27.5397 27.2062 28.829 25.6021L24.3427 24.7419C24.0429 24.6669 23.7524 24.6763 23.4713 24.77C23.1903 24.8637 22.9373 25.023 22.7123 25.2478L15.1678 32.7925ZM24.6463 37.6779L32.9218 45.9365C35.2305 44.8946 37.5542 43.5698 39.893 41.9619C42.2317 40.354 44.4805 38.4707 46.6393 36.3118C49.7875 33.1636 52.1928 29.8063 53.855 26.2401C55.5172 22.674 56.4514 18.5559 56.6576 13.886C51.9876 14.0921 47.8761 15.0263 44.3231 16.6885C40.77 18.3507 37.4193 20.7559 34.271 23.9043C32.1123 26.063 30.2289 28.3212 28.6211 30.6786C27.0132 33.0361 25.6883 35.3692 24.6463 37.6779ZM39.7918 30.7349C38.9335 29.8766 38.5043 28.8468 38.5043 27.6456C38.5043 26.4444 38.9335 25.4146 39.7918 24.5564C40.6501 23.6981 41.692 23.2689 42.9176 23.2689C44.1432 23.2689 45.1851 23.6981 46.0434 24.5564C46.9017 25.4146 47.3308 26.4444 47.3308 27.6456C47.3308 28.8468 46.9017 29.8766 46.0434 30.7349C45.1851 31.5932 44.1432 32.0223 42.9176 32.0223C41.692 32.0223 40.6501 31.5932 39.7918 30.7349ZM37.7511 55.432L45.2956 47.8874C45.5205 47.6625 45.6798 47.4095 45.7735 47.1284C45.8672 46.8473 45.8766 46.5569 45.8016 46.257L44.9414 41.7708C43.3373 43.06 41.6864 44.2359 39.9886 45.2985C38.2907 46.361 36.5348 47.3458 34.7208 48.2528L37.7511 55.432ZM59.3898 11.193C59.7159 16.5638 58.956 21.5046 57.1102 26.0152C55.2643 30.5259 52.3887 34.7339 48.4833 38.6393L47.4714 39.6512L48.652 45.6498C48.8094 46.4369 48.7794 47.1996 48.562 47.938C48.3446 48.6763 47.9511 49.3303 47.3814 49.9L36.7335 60.4918L31.8874 49.0736L21.4699 38.6562L10.0518 33.7538L20.6266 23.1621C21.1963 22.5924 21.8531 22.1895 22.5971 21.9534C23.341 21.7173 24.1066 21.6779 24.8936 21.8354L31.0047 23.0722C31.1921 22.8848 31.3514 22.7161 31.4826 22.5662C31.6137 22.4163 31.773 22.2476 31.9605 22.0602C35.8658 18.1549 40.071 15.2858 44.576 13.453C49.0811 11.6203 54.019 10.867 59.3898 11.193ZM14.9597 47.2633C16.1029 46.1202 17.4924 45.5552 19.1284 45.5683C20.7644 45.5814 22.1539 46.1596 23.297 47.3027C24.4402 48.4458 25.0089 49.8354 25.0033 51.4713C24.9977 53.1073 24.4233 54.4969 23.2802 55.64C22.287 56.6333 20.6932 57.484 18.4987 58.1924C16.3043 58.9008 13.766 59.3899 10.8838 59.6597C11.1537 56.7775 11.6521 54.2392 12.3792 52.0448C13.1063 49.8504 13.9665 48.2565 14.9597 47.2633ZM17.0455 49.3884C16.4833 49.9506 15.9585 50.8679 15.4713 52.1404C14.9841 53.4128 14.6617 54.7255 14.5043 56.0785C15.8574 55.9211 17.1701 55.5922 18.4425 55.0919C19.7149 54.5916 20.6322 54.0603 21.1944 53.4981C21.7791 52.9134 22.0771 52.2163 22.0883 51.4067C22.0996 50.5971 21.8128 49.9 21.2281 49.3153C20.6435 48.7306 19.9463 48.4505 19.1368 48.4749C18.3273 48.4992 17.6302 48.8037 17.0455 49.3884Z" fill="#F5F5F5"/>
</g>
</svg>
