<svg width="71" height="71" viewBox="0 0 71 71" fill="none" xmlns="http://www.w3.org/2000/svg">
<mask id="mask0_206_2542" style="mask-type:alpha" maskUnits="userSpaceOnUse" x="0" y="0" width="71" height="71">
<rect width="70.1616" height="70.1616" fill="#D9D9D9"/>
</mask>
<g mask="url(#mask0_206_2542)">
<path d="M29.6274 61.3917L28.5706 52.9364C27.6373 52.6553 26.6282 52.213 25.5432 51.6096C24.4581 51.0061 23.5352 50.3596 22.7743 49.6701L14.9767 52.9869L9.52344 43.4859L16.2641 38.4036C16.1779 37.8752 16.1067 37.3308 16.0505 36.7705C15.9943 36.2102 15.9662 35.6658 15.9662 35.1373C15.9662 34.6463 15.9943 34.1301 16.0505 33.5885C16.1067 33.0469 16.1779 32.437 16.2641 31.7586L9.52344 26.6763L14.9767 17.2877L22.7181 20.5485C23.5914 19.8214 24.5359 19.1655 25.5516 18.5808C26.5673 17.9961 27.5549 17.5445 28.5144 17.2259L29.6274 8.77051H40.5341L41.591 17.2821C42.7116 17.6756 43.702 18.1272 44.5622 18.637C45.4223 19.1467 46.3078 19.7838 47.2185 20.5485L55.1848 17.2877L60.6381 26.6763L53.6725 31.9272C53.8337 32.5306 53.9236 33.0844 53.9423 33.5885C53.9611 34.0926 53.9705 34.5901 53.9705 35.0811C53.9705 35.5346 53.9517 36.0134 53.9143 36.5175C53.8767 37.0216 53.7905 37.6316 53.6556 38.3474L60.5087 43.4859L55.0555 52.9869L47.2185 49.6138C46.3078 50.3784 45.3914 51.0343 44.4694 51.5814C43.5474 52.1287 42.5879 52.5616 41.591 52.8802L40.5341 61.3917H29.6274ZM35.002 42.3896C37.0409 42.3896 38.7687 41.6813 40.1855 40.2645C41.6022 38.8478 42.3105 37.12 42.3105 35.0811C42.3105 33.0422 41.6022 31.3144 40.1855 29.8977C38.7687 28.481 37.0409 27.7726 35.002 27.7726C32.9519 27.7726 31.2213 28.481 29.8102 29.8977C28.3991 31.3144 27.6935 33.0422 27.6935 35.0811C27.6935 37.12 28.3991 38.8478 29.8102 40.2645C31.2213 41.6813 32.9519 42.3896 35.002 42.3896ZM35.002 39.4662C33.784 39.4662 32.7486 39.0399 31.8959 38.1872C31.0433 37.3346 30.6169 36.2992 30.6169 35.0811C30.6169 33.863 31.0433 32.8277 31.8959 31.975C32.7486 31.1223 33.784 30.696 35.002 30.696C36.2201 30.696 37.2555 31.1223 38.1082 31.975C38.9608 32.8277 39.3871 33.863 39.3871 35.0811C39.3871 36.2992 38.9608 37.3346 38.1082 38.1872C37.2555 39.0399 36.2201 39.4662 35.002 39.4662ZM32.1574 58.4683H37.8749L38.9543 50.5526C40.4272 50.1628 41.7531 49.6278 42.9318 48.9476C44.1105 48.2673 45.3108 47.335 46.5326 46.1507L53.8243 49.2596L56.7308 44.2898L50.333 39.4831C50.5766 38.651 50.7378 37.8855 50.8165 37.1866C50.8952 36.4876 50.9346 35.7858 50.9346 35.0811C50.9346 34.339 50.8952 33.6372 50.8165 32.9757C50.7378 32.3142 50.5766 31.5861 50.333 30.7916L56.8432 25.8724L53.9367 20.9026L46.4764 24.0284C45.5919 23.0577 44.4291 22.1479 42.988 21.299C41.5469 20.4501 40.1836 19.8869 38.8981 19.6096L38.0042 11.6939H32.1742L31.2635 19.5533C29.7905 19.8682 28.4365 20.3751 27.2016 21.0741C25.9667 21.7731 24.7383 22.7335 23.5164 23.9553L16.2248 20.9026L13.3183 25.8724L19.6598 30.606C19.4162 31.262 19.2457 31.9741 19.1482 32.7424C19.0508 33.5107 19.0021 34.309 19.0021 35.1373C19.0021 35.8794 19.0508 36.6159 19.1482 37.3468C19.2457 38.0776 19.3975 38.7897 19.6036 39.4831L13.3183 44.2898L16.2248 49.2596L23.4602 46.19C24.6071 47.3481 25.798 48.2767 27.033 48.9757C28.2679 49.6747 29.6594 50.2191 31.2073 50.6089L32.1574 58.4683Z" fill="#F5F5F5"/>
</g>
</svg>
