<svg width="71" height="71" viewBox="0 0 71 71" fill="none" xmlns="http://www.w3.org/2000/svg">
<mask id="mask0_131_76" style="mask-type:alpha" maskUnits="userSpaceOnUse" x="0" y="0" width="71" height="71">
<rect width="70.1616" height="70.1616" fill="#D9D9D9"/>
</mask>
<g mask="url(#mask0_131_76)">
<path d="M26.3777 62.0662L21.4979 53.8358L12.2105 51.8343L13.1212 42.2545L6.8584 35.081L13.1212 27.9074L12.2105 18.3276L21.4979 16.3262L26.3777 8.0957L35.0805 11.7725L43.7832 8.0957L48.663 16.3262L57.9505 18.3276L57.0397 27.9074L63.3025 35.081L57.0397 42.2545L57.9505 51.8343L48.663 53.8358L43.7832 62.0662L35.0805 58.3895L26.3777 62.0662ZM27.6258 58.322L35.0805 55.2187L42.5689 58.322L46.7741 51.3058L54.8134 49.518L54.0826 41.2201L59.4909 35.081L54.0826 28.9081L54.8134 20.6101L46.7741 18.8561L42.5351 11.8399L35.0805 14.9433L27.592 11.8399L23.3869 18.8561L15.3475 20.6101L16.0784 28.9081L10.6701 35.081L16.0784 41.2201L15.3475 49.5518L23.3869 51.3058L27.6258 58.322ZM32.0109 43.4352L46.5042 28.9418L44.4354 26.8392L32.0109 39.2637L25.7256 33.0121L23.6567 35.081L32.0109 43.4352Z" fill="#F5F5F5"/>
</g>
</svg>
