<svg width="71" height="71" viewBox="0 0 71 71" fill="none" xmlns="http://www.w3.org/2000/svg">
<mask id="mask0_206_2584" style="mask-type:alpha" maskUnits="userSpaceOnUse" x="0" y="0" width="71" height="71">
<rect width="70.1616" height="70.1616" fill="#D9D9D9"/>
</mask>
<g mask="url(#mask0_206_2584)">
<path d="M29.0149 38.8141L31.2918 31.2694L25.2989 26.8731H32.7872L35.081 19.2498L37.3748 26.8731H44.8631L38.8533 31.2694L41.1302 38.8141L35.081 34.131L29.0149 38.8141ZM20.464 62.741V43.4746C18.6125 41.6532 17.1752 39.5206 16.152 37.0769C15.1288 34.6333 14.6172 32.019 14.6172 29.2343C14.6172 23.5299 16.6017 18.6932 20.5708 14.7241C24.5399 10.755 29.3766 8.77051 35.081 8.77051C40.7854 8.77051 45.6221 10.755 49.5912 14.7241C53.5603 18.6932 55.5448 23.5299 55.5448 29.2343C55.5448 32.019 55.0332 34.6333 54.01 37.0769C52.9868 39.5206 51.5495 41.6532 49.698 43.4746V62.741L35.081 58.3559L20.464 62.741ZM35.081 46.7747C39.9533 46.7747 44.0948 45.0694 47.5054 41.6588C50.9161 38.2481 52.6214 34.1066 52.6214 29.2343C52.6214 24.362 50.9161 20.2205 47.5054 16.8099C44.0948 13.3992 39.9533 11.6939 35.081 11.6939C30.2087 11.6939 26.0672 13.3992 22.6565 16.8099C19.2459 20.2205 17.5406 24.362 17.5406 29.2343C17.5406 34.1066 19.2459 38.2481 22.6565 41.6588C26.0672 45.0694 30.2087 46.7747 35.081 46.7747ZM23.3874 58.5976L35.081 55.32L46.7746 58.5976V45.9371C45.1442 47.1364 43.333 48.0631 41.341 48.7171C39.349 49.3711 37.2623 49.6981 35.081 49.6981C32.8997 49.6981 30.813 49.3711 28.821 48.7171C26.829 48.0631 25.0178 47.1364 23.3874 45.9371V58.5976Z" fill="#F5F5F5"/>
</g>
</svg>
