<svg width="38" height="38" viewBox="0 0 38 38" fill="none" xmlns="http://www.w3.org/2000/svg">
<path d="M32.1953 32.1055H26.6432V23.4056C26.6432 21.3309 26.6011 18.6611 23.75 18.6611C20.8553 18.6611 20.4132 20.9185 20.4132 23.2525V32.1055H14.8611V14.2151H20.1945V16.6537H20.2663C21.0115 15.2477 22.8236 13.7636 25.5309 13.7636C31.1564 13.7636 32.1969 17.4661 32.1969 22.2854L32.1953 32.1055ZM8.59041 11.7671C8.16686 11.7673 7.74743 11.684 7.35612 11.5219C6.96481 11.3598 6.60931 11.1222 6.30996 10.8225C6.01061 10.5229 5.7733 10.1672 5.61159 9.77571C5.44989 9.38424 5.36697 8.96473 5.36758 8.54118C5.36789 7.90346 5.5573 7.28015 5.91186 6.75007C6.26642 6.22 6.7702 5.80696 7.3595 5.5632C7.94879 5.31944 8.59714 5.2559 9.22255 5.38062C9.84796 5.50533 10.4223 5.81271 10.8731 6.26386C11.3238 6.71502 11.6306 7.2897 11.7547 7.91523C11.8788 8.54076 11.8147 9.18905 11.5703 9.77811C11.326 10.3672 10.9125 10.8705 10.382 11.2246C9.85163 11.5786 9.22813 11.7674 8.59041 11.7671ZM11.3743 32.1055H5.80656V14.2151H11.3743V32.1055ZM34.9729 0.155273H3.01959C1.49019 0.155273 0.25293 1.36442 0.25293 2.85632V34.9471C0.25293 36.4406 1.49019 37.6482 3.01959 37.6482H34.9682C36.4961 37.6482 37.7458 36.4406 37.7458 34.9471V2.85632C37.7458 1.36442 36.4961 0.155273 34.9682 0.155273H34.9729Z" fill="#F5F5F5"/>
</svg>
