<svg width="38" height="38" viewBox="0 0 38 38" fill="none" xmlns="http://www.w3.org/2000/svg">
<path d="M37.8722 18.9025C37.8722 8.54778 29.4797 0.155273 19.1265 0.155273C8.77337 0.155273 0.380859 8.54778 0.380859 18.9025C0.380859 28.2574 7.23609 36.0125 16.1973 37.4185V24.3204H11.4386V18.9009H16.1973V14.7719C16.1973 10.0726 18.9969 7.47763 23.2775 7.47763C25.3287 7.47763 27.4737 7.8432 27.4737 7.8432V12.4566H25.1116C22.7838 12.4566 22.0573 13.9017 22.0573 15.3843V18.9025H27.2566L26.4254 24.322H22.0573V37.4201C31.0185 36.014 37.8737 28.2589 37.8737 18.9025H37.8722Z" fill="#F5F5F5"/>
</svg>
