<svg width="38" height="31" viewBox="0 0 38 31" fill="none" xmlns="http://www.w3.org/2000/svg">
<path d="M37.5474 4.12964C36.1438 4.74763 34.6568 5.15556 33.1344 5.34029C34.7373 4.37685 35.9375 2.86594 36.5133 1.08659C35.0277 1.95358 33.3812 2.58468 31.6285 2.93616C30.4721 1.69962 28.9398 0.879485 27.2695 0.603111C25.5993 0.326738 23.8845 0.609593 22.3914 1.40775C20.8984 2.20591 19.7107 3.47471 19.0127 5.01713C18.3147 6.55954 18.1456 8.28925 18.5315 9.93767C12.1423 9.63618 6.47959 6.56814 2.68984 1.93015C2.00061 3.10146 1.64112 4.43742 1.64945 5.79644C1.64945 8.4677 3.00851 10.8156 5.06741 12.195C3.84716 12.1561 2.65386 11.8262 1.58697 11.2327V11.328C1.58627 13.1032 2.19974 14.8239 3.32329 16.1983C4.44684 17.5727 6.01128 18.5161 7.75117 18.8684C6.62377 19.1705 5.44297 19.2159 4.29572 19.0012C4.78975 20.5289 5.74824 21.8643 7.0375 22.8211C8.32677 23.778 9.88253 24.3086 11.4878 24.339C8.76888 26.4727 5.41181 27.6308 1.95563 27.6273C1.3464 27.6273 0.738726 27.5914 0.12793 27.5227C3.65166 29.7789 7.74884 30.9766 11.933 30.9734C26.0766 30.9734 33.8014 19.2636 33.8014 9.12536C33.8014 8.79887 33.8014 8.46926 33.778 8.14121C35.2869 7.05528 36.5886 5.70709 37.6208 4.16088L37.5474 4.12964Z" fill="#F5F5F5"/>
</svg>
