<svg width="38" height="39" viewBox="0 0 38 39" fill="none" xmlns="http://www.w3.org/2000/svg">
<path d="M19.3631 30.3019C13.0613 30.3019 10.2464 27.2019 10.2464 24.8757C10.2464 23.6774 11.1252 22.8456 12.3345 22.8456C15.0335 22.8456 14.3286 26.7257 19.3631 26.7257C21.9337 26.7257 23.3576 25.3237 23.3576 23.8888C23.3576 23.0257 22.9362 22.0718 21.2366 21.6504L15.635 20.2484C11.1236 19.1143 10.3044 16.6675 10.3044 14.3727C10.3044 9.59975 14.786 7.80774 18.9966 7.80774C22.8673 7.80774 27.4444 9.95846 27.4444 12.8188C27.4444 14.0469 26.3667 14.7612 25.1684 14.7612C22.8673 14.7612 23.2918 11.5703 18.6457 11.5703C16.3446 11.5703 15.0554 12.6105 15.0554 14.1033C15.0554 15.5961 16.8615 16.0739 18.4342 16.4326L22.5649 17.3521C27.0935 18.3687 28.2417 21.0269 28.2417 23.5301C28.2417 27.4086 25.2623 30.3034 19.2785 30.3034M36.641 22.656L36.5956 22.8675L36.5266 22.4916C36.5501 22.5621 36.5956 22.6075 36.6191 22.6795C36.807 21.6222 36.9026 20.5445 36.9026 19.4652C36.903 17.1325 36.4432 14.8227 35.5494 12.668C34.6557 10.5133 33.3456 8.55612 31.6942 6.9086C30.0755 5.29561 28.1643 4.00587 26.0628 3.10841C23.9982 2.11999 21.6752 1.65162 19.2832 1.65162C18.1554 1.65162 17.0213 1.76127 15.9263 1.97117L16.1128 2.06516L15.7384 2.01347L15.9248 1.97431C14.4104 1.16315 12.7194 0.7381 11.0015 0.736816C8.19909 0.736816 5.5659 1.83019 3.58278 3.81801C2.60452 4.79358 1.82914 5.95322 1.30138 7.23002C0.773612 8.50681 0.503918 9.87548 0.507855 11.257C0.507855 13.0475 0.965256 14.805 1.82993 16.3605L1.86126 16.1663L1.92549 16.5407L1.82993 16.3605C1.24043 19.7253 1.62904 23.1886 2.94681 26.3403C3.82252 28.4604 5.11537 30.3829 6.74856 31.9936C8.36115 33.6203 10.2735 34.9193 12.3799 35.8189C14.5635 36.7587 16.8866 37.2255 19.2785 37.2255C20.3108 37.2255 21.3682 37.1315 22.3754 36.9451L22.189 36.848L22.5649 36.9201L22.3535 36.9671C23.9255 37.8628 25.704 38.333 27.5133 38.3314C28.8912 38.3355 30.2561 38.0658 31.5289 37.5379C32.8016 37.0101 33.9568 36.2346 34.9273 35.2565C35.9051 34.2807 36.68 33.1209 37.2075 31.8442C37.735 30.5674 38.0045 29.1989 38.0007 27.8175C37.9942 26.0267 37.5346 24.2667 36.6645 22.7015" fill="#F5F5F5"/>
</svg>
