<svg width="24" height="24" viewBox="0 0 24 24" fill="none" xmlns="http://www.w3.org/2000/svg">
<path d="M17.415 14.382C17.118 14.233 15.657 13.515 15.385 13.415C15.112 13.316 14.914 13.267 14.715 13.565C14.518 13.862 13.948 14.531 13.775 14.729C13.602 14.928 13.428 14.952 13.131 14.804C12.834 14.654 11.876 14.341 10.741 13.329C9.85798 12.541 9.26098 11.568 9.08799 11.27C8.91498 10.973 9.06998 10.812 9.21798 10.664C9.35198 10.531 9.51598 10.317 9.66398 10.144C9.81298 9.97002 9.86198 9.84602 9.96198 9.64703C10.061 9.44903 10.012 9.27603 9.93698 9.12703C9.86198 8.97803 9.26798 7.51503 9.02098 6.92003C8.77899 6.34103 8.53399 6.42003 8.35199 6.41003C8.16208 6.40247 7.97204 6.39913 7.78199 6.40003C7.58399 6.40003 7.26199 6.47403 6.98999 6.77203C6.71799 7.06903 5.94999 7.78803 5.94999 9.25103C5.94999 10.713 7.01499 12.126 7.16299 12.325C7.31199 12.523 9.25898 15.525 12.24 16.812C12.949 17.118 13.502 17.301 13.934 17.437C14.646 17.664 15.294 17.632 15.805 17.555C16.376 17.47 17.563 16.836 17.811 16.142C18.059 15.448 18.059 14.853 17.984 14.729C17.91 14.605 17.713 14.531 17.415 14.382ZM11.993 21.785H11.989C10.2188 21.7851 8.48106 21.3092 6.95799 20.407L6.59699 20.193L2.856 21.175L3.85399 17.527L3.61899 17.153C2.62944 15.5773 2.10594 13.7537 2.109 11.893C2.11 6.44303 6.54499 2.00904 11.997 2.00904C14.637 2.00904 17.119 3.03904 18.985 4.90703C19.9056 5.82365 20.6354 6.91376 21.132 8.11427C21.6285 9.31478 21.8821 10.6019 21.878 11.901C21.875 17.351 17.441 21.785 11.993 21.785ZM20.406 3.48804C19.3042 2.37896 17.9932 1.49958 16.5491 0.90084C15.1049 0.302104 13.5563 -0.00407624 11.993 4.09775e-05C5.43799 4.09775e-05 0.103 5.33503 0.0999998 11.892C0.0999998 13.988 0.646999 16.034 1.688 17.837L0 24L6.30499 22.346C8.04858 23.2959 10.0024 23.7938 11.988 23.794H11.993C18.547 23.794 23.883 18.459 23.886 11.901C23.8908 10.3383 23.5857 8.79013 22.9884 7.34606C22.3911 5.902 21.5133 4.5907 20.406 3.48804Z" fill="#F5F5F5"/>
</svg>
